# Source-derived OPEN bottom; not a complete aircraft
v 0.0 0.0 0.804926
v 0.0 0.0 0.804926
v 0.0 0.0 0.804926
v 0.0 0.0 0.804926
v 0.0 0.0 0.804926
v 0.0 0.0 0.804926
v 0.0 0.0 0.804926
v 0.0 0.0 0.804926
v 0.0 0.0 0.804926
v 0.0 0.0 0.804926
v 0.0 0.0 0.804926
v 0.0 0.0 0.804926
v 0.0 0.0 0.804926
v 0.0 0.0 0.804926
v 0.0 0.0 0.804926
v 0.0 0.0 0.804926
v 0.0 0.0 0.804926
v 0.0254 -0.081026 0.764794
v 0.0254 -0.07089775 0.758952
v 0.0254 -0.060769500000000004 0.75311
v 0.0254 -0.05064125 0.7472679999999999
v 0.0254 -0.040513 0.7414259999999999
v 0.0254 -0.030384750000000002 0.735584
v 0.0254 -0.020256499999999997 0.729742
v 0.0254 -0.010128250000000005 0.7239
v 0.0254 0.0 0.718058
v 0.0254 0.010128250000000005 0.7239
v 0.0254 0.020256499999999997 0.729742
v 0.0254 0.030384750000000002 0.735584
v 0.0254 0.04051300000000001 0.741426
v 0.0254 0.05064125000000001 0.7472679999999999
v 0.0254 0.06076949999999999 0.75311
v 0.0254 0.07089775 0.758952
v 0.0254 0.081026 0.764794
v 0.07619999999999999 -0.139446 0.7294879999999999
v 0.07619999999999999 -0.12201524999999999 0.71942325
v 0.07619999999999999 -0.1045845 0.7093585
v 0.07619999999999999 -0.08715374999999999 0.6992937499999999
v 0.07619999999999999 -0.069723 0.689229
v 0.07619999999999999 -0.05229225 0.67916425
v 0.07619999999999999 -0.03486149999999999 0.6690995
v 0.07619999999999999 -0.017430749999999995 0.65903475
v 0.07619999999999999 0.0 0.64897
v 0.07619999999999999 0.017430749999999995 0.65903475
v 0.07619999999999999 0.03486149999999999 0.6690995
v 0.07619999999999999 0.052292249999999985 0.67916425
v 0.07619999999999999 0.06972300000000001 0.689229
v 0.07619999999999999 0.08715375 0.6992937499999999
v 0.07619999999999999 0.1045845 0.7093585
v 0.07619999999999999 0.12201524999999999 0.71942325
v 0.07619999999999999 0.139446 0.7294879999999999
v 0.2032 -0.22453599999999999 0.673354
v 0.2032 -0.19646899999999998 0.6571615
v 0.2032 -0.168402 0.640969
v 0.2032 -0.140335 0.6247765
v 0.2032 -0.11226799999999999 0.608584
v 0.2032 -0.084201 0.5923915
v 0.2032 -0.05613399999999999 0.576199
v 0.2032 -0.02806700000000001 0.5600065000000001
v 0.2032 0.0 0.543814
v 0.2032 0.02806699999999998 0.5600065
v 0.2032 0.05613399999999999 0.576199
v 0.2032 0.084201 0.5923915
v 0.2032 0.112268 0.608584
v 0.2032 0.14033500000000002 0.6247765000000001
v 0.2032 0.16840199999999997 0.640969
v 0.2032 0.19646899999999998 0.6571615
v 0.2032 0.22453599999999999 0.673354
v 0.4064 -0.30988 0.613156
v 0.4064 -0.27114499999999997 0.590804
v 0.4064 -0.23241 0.5684520000000001
v 0.4064 -0.19367499999999999 0.5461
v 0.4064 -0.15494 0.523748
v 0.4064 -0.116205 0.5013960000000001
v 0.4064 -0.07746999999999998 0.479044
v 0.4064 -0.03873500000000002 0.45669200000000004
v 0.4064 0.0 0.43434
v 0.4064 0.03873500000000002 0.45669200000000004
v 0.4064 0.07746999999999998 0.479044
v 0.4064 0.116205 0.5013960000000001
v 0.4064 0.15494000000000002 0.5237480000000001
v 0.4064 0.19367499999999999 0.5461
v 0.4064 0.23240999999999995 0.568452
v 0.4064 0.271145 0.5908040000000001
v 0.4064 0.30988 0.613156
v 0.7365999999999999 -0.399796 0.5389879999999999
v 0.7365999999999999 -0.3498215 0.5101272499999999
v 0.7365999999999999 -0.299847 0.48126649999999993
v 0.7365999999999999 -0.2498725 0.45240574999999994
v 0.7365999999999999 -0.199898 0.42354499999999995
v 0.7365999999999999 -0.1499235 0.39468424999999996
v 0.7365999999999999 -0.09994900000000001 0.36582349999999997
v 0.7365999999999999 -0.04997449999999998 0.33696275
v 0.7365999999999999 0.0 0.308102
v 0.7365999999999999 0.04997449999999998 0.33696275
v 0.7365999999999999 0.09994900000000001 0.36582349999999997
v 0.7365999999999999 0.14992350000000004 0.39468424999999996
v 0.7365999999999999 0.19989799999999996 0.42354499999999995
v 0.7365999999999999 0.2498725 0.45240574999999994
v 0.7365999999999999 0.29984700000000003 0.48126649999999993
v 0.7365999999999999 0.34982149999999995 0.5101272499999999
v 0.7365999999999999 0.399796 0.5389879999999999
v 1.1176 -0.46685199999999993 0.475234
v 1.1176 -0.40849549999999996 0.44154725
v 1.1176 -0.350139 0.4078605
v 1.1176 -0.29178249999999994 0.37417374999999997
v 1.1176 -0.23342599999999997 0.340487
v 1.1176 -0.1750695 0.30680025
v 1.1176 -0.11671299999999996 0.27311349999999995
v 1.1176 -0.05835649999999998 0.23942674999999997
v 1.1176 0.0 0.20573999999999998
v 1.1176 0.05835650000000003 0.23942675
v 1.1176 0.11671299999999996 0.27311349999999995
v 1.1176 0.1750695 0.30680025
v 1.1176 0.23342600000000002 0.340487
v 1.1176 0.29178249999999994 0.37417374999999997
v 1.1176 0.350139 0.4078605
v 1.1176 0.4084954999999999 0.44154724999999995
v 1.1176 0.46685199999999993 0.475234
v 1.4986 -0.508762 0.424434
v 1.4986 -0.44516675000000006 0.39229738113006396
v 1.4986 -0.38157150000000006 0.36016076226012794
v 1.4986 -0.31797625 0.3280241433901919
v 1.4986 -0.254381 0.2937093821596245
v 1.4986 -0.19078575000000003 0.25298453661971837
v 1.4986 -0.12719049999999998 0.21225969107981224
v 1.4986 -0.06359524999999999 0.1715348455399061
v 1.4986 0.0 0.13081
v 1.4986 0.06359524999999999 0.1715348455399061
v 1.4986 0.12719049999999998 0.21225969107981224
v 1.4986 0.19078574999999998 0.2529845366197183
v 1.4986 0.2543810000000001 0.2937093821596245
v 1.4986 0.31797625000000007 0.328024143390192
v 1.4986 0.38157150000000006 0.36016076226012794
v 1.4986 0.44516675000000006 0.39229738113006396
v 1.4986 0.508762 0.424434
v 1.7271999999999998 -0.522478 0.398526
v 1.7271999999999998 -0.45716825 0.3647235095846645
v 1.7271999999999998 -0.3918585 0.33092101916932903
v 1.7271999999999998 -0.32654875 0.2971185287539936
v 1.7271999999999998 -0.261239 0.26068578890876565
v 1.7271999999999998 -0.19592925 0.21932684168157424
v 1.7271999999999998 -0.1306195 0.17796789445438282
v 1.7271999999999998 -0.06530975 0.1366089472271914
v 1.7271999999999998 0.0 0.09525
v 1.7271999999999998 0.06530974999999994 0.13660894722719136
v 1.7271999999999998 0.1306195 0.17796789445438282
v 1.7271999999999998 0.19592925000000005 0.21932684168157426
v 1.7271999999999998 0.261239 0.26068578890876565
v 1.7271999999999998 0.32654874999999994 0.2971185287539936
v 1.7271999999999998 0.3918585 0.33092101916932903
v 1.7271999999999998 0.45716825000000005 0.36472350958466454
v 1.7271999999999998 0.522478 0.398526
v 2.2605999999999997 -0.550164 0.356108
v 2.2605999999999997 -0.4813935 0.32143739522821574
v 2.2605999999999997 -0.41262299999999996 0.2867667904564315
v 2.2605999999999997 -0.3438525 0.2520961856846473
v 2.2605999999999997 -0.275082 0.2134269866888519
v 2.2605999999999997 -0.20631149999999998 0.16965874001663891
v 2.2605999999999997 -0.13754100000000002 0.12589049334442598
v 2.2605999999999997 -0.06877050000000001 0.08212224667221299
v 2.2605999999999997 0.0 0.038354
v 2.2605999999999997 0.06877049999999996 0.08212224667221295
v 2.2605999999999997 0.13754100000000002 0.12589049334442598
v 2.2605999999999997 0.20631149999999998 0.16965874001663891
v 2.2605999999999997 0.27508199999999994 0.21342698668885188
v 2.2605999999999997 0.3438525 0.2520961856846473
v 2.2605999999999997 0.41262299999999996 0.2867667904564315
v 2.2605999999999997 0.4813934999999999 0.32143739522821574
v 2.2605999999999997 0.550164 0.356108
v 2.8447999999999998 -0.56642 0.34036
v 2.8447999999999998 -0.49561750000000004 0.3011709619341564
v 2.8447999999999998 -0.42481500000000005 0.26198192386831276
v 2.8447999999999998 -0.3540125 0.22279288580246911
v 2.8447999999999998 -0.28321 0.1820533895071542
v 2.8447999999999998 -0.21240750000000003 0.13984204213036566
v 2.8447999999999998 -0.14160499999999998 0.09763069475357708
v 2.8447999999999998 -0.07080249999999999 0.05541934737678854
v 2.8447999999999998 0.0 0.013208
v 2.8447999999999998 0.07080249999999999 0.05541934737678854
v 2.8447999999999998 0.14160499999999998 0.09763069475357708
v 2.8447999999999998 0.21240749999999997 0.13984204213036563
v 2.8447999999999998 0.2832100000000001 0.18205338950715425
v 2.8447999999999998 0.35401250000000006 0.22279288580246914
v 2.8447999999999998 0.42481500000000005 0.26198192386831276
v 2.8447999999999998 0.49561749999999993 0.3011709619341563
v 2.8447999999999998 0.56642 0.34036
v 3.0225999999999997 -0.5689599999999999 0.33883599999999997
v 3.0225999999999997 -0.49783999999999995 0.29844686419753086
v 3.0225999999999997 -0.42671999999999993 0.2580577283950617
v 3.0225999999999997 -0.3555999999999999 0.21766859259259255
v 3.0225999999999997 -0.28447999999999996 0.17680803785488958
v 3.0225999999999997 -0.21336 0.1355270283911672
v 3.0225999999999997 -0.14223999999999998 0.09424601892744479
v 3.0225999999999997 -0.07111999999999996 0.05296500946372238
v 3.0225999999999997 0.0 0.011684
v 3.0225999999999997 0.07111999999999996 0.05296500946372238
v 3.0225999999999997 0.14223999999999992 0.09424601892744476
v 3.0225999999999997 0.21336 0.1355270283911672
v 3.0225999999999997 0.28447999999999996 0.17680803785488958
v 3.0225999999999997 0.3555999999999999 0.21766859259259255
v 3.0225999999999997 0.42672 0.25805772839506175
v 3.0225999999999997 0.49783999999999984 0.2984468641975308
v 3.0225999999999997 0.5689599999999999 0.33883599999999997
v 3.4036 -0.5715 0.335534
v 3.4036 -0.5000625 0.29327727817993793
v 3.4036 -0.42862500000000003 0.2510205563598759
v 3.4036 -0.3571875 0.20876383453981384
v 3.4036 -0.28575 0.16784965393608728
v 3.4036 -0.21431250000000002 0.12798274045206548
v 3.4036 -0.14287499999999997 0.08811582696804363
v 3.4036 -0.07143750000000004 0.04824891348402185
v 3.4036 0.0 0.008382
v 3.4036 0.07143750000000004 0.04824891348402185
v 3.4036 0.14287499999999997 0.08811582696804363
v 3.4036 0.21431250000000002 0.12798274045206548
v 3.4036 0.28575000000000006 0.16784965393608733
v 3.4036 0.3571875 0.20876383453981384
v 3.4036 0.4286249999999999 0.25102055635987586
v 3.4036 0.5000625 0.29327727817993793
v 3.4036 0.5715 0.335534
v 3.7083999999999997 -0.569976 0.33299399999999996
v 3.7083999999999997 -0.49872900000000003 0.2886708663157894
v 3.7083999999999997 -0.42748200000000003 0.24434773263157894
v 3.7083999999999997 -0.356235 0.20002459894736843
v 3.7083999999999997 -0.284988 0.15934790108191654
v 3.7083999999999997 -0.21374100000000001 0.1209714258114374
v 3.7083999999999997 -0.142494 0.08259495054095826
v 3.7083999999999997 -0.071247 0.04421847527047913
v 3.7083999999999997 0.0 0.005842
v 3.7083999999999997 0.07124700000000006 0.04421847527047917
v 3.7083999999999997 0.142494 0.08259495054095826
v 3.7083999999999997 0.21374099999999996 0.12097142581143737
v 3.7083999999999997 0.284988 0.15934790108191654
v 3.7083999999999997 0.3562350000000001 0.20002459894736846
v 3.7083999999999997 0.42748200000000003 0.24434773263157894
v 3.7083999999999997 0.498729 0.2886708663157894
v 3.7083999999999997 0.569976 0.33299399999999996
v 4.5466 -0.561086 0.325882
v 4.5466 -0.49095025 0.27619286578657865
v 4.5466 -0.4208145 0.22650373157315729
v 4.5466 -0.35067875 0.17681459735973595
v 4.5466 -0.280543 0.13770668615384613
v 4.5466 -0.21040725 0.1029625146153846
v 4.5466 -0.1402715 0.06821834307692307
v 4.5466 -0.07013575 0.03347417153846153
v 4.5466 0.0 -0.00127
v 4.5466 0.07013574999999994 0.0334741715384615
v 4.5466 0.1402715 0.06821834307692307
v 4.5466 0.21040725000000005 0.10296251461538462
v 4.5466 0.280543 0.13770668615384613
v 4.5466 0.35067874999999993 0.1768145973597359
v 4.5466 0.4208145 0.22650373157315729
v 4.5466 0.49095025000000003 0.2761928657865787
v 4.5466 0.561086 0.325882
v 4.5466 -0.544068 0.415798
v 4.5466 -0.47605949999999997 0.37557075
v 4.5466 -0.408051 0.3353435
v 4.5466 -0.3400425 0.29511625
v 4.5466 -0.272034 0.254889
v 4.5466 -0.20402549999999997 0.21466174999999998
v 4.5466 -0.136017 0.1744345
v 4.5466 -0.06800850000000003 0.13420725
v 4.5466 0.0 0.09398
v 4.5466 0.06800850000000003 0.13420725
v 4.5466 0.13601700000000005 0.17443450000000005
v 4.5466 0.20402549999999997 0.21466174999999998
v 4.5466 0.272034 0.254889
v 4.5466 0.3400425 0.29511625
v 4.5466 0.40805099999999994 0.33534349999999996
v 4.5466 0.4760595000000001 0.37557075000000006
v 4.5466 0.544068 0.415798
v 4.9276 -0.518668 0.451358
v 4.9276 -0.45383450000000003 0.41240075
v 4.9276 -0.38900100000000004 0.37344350000000004
v 4.9276 -0.3241675 0.33448625
v 4.9276 -0.259334 0.295529
v 4.9276 -0.19450050000000002 0.25657175
v 4.9276 -0.12966699999999998 0.2176145
v 4.9276 -0.06483349999999999 0.17865725
v 4.9276 0.0 0.1397
v 4.9276 0.06483349999999999 0.17865725
v 4.9276 0.12966699999999998 0.2176145
v 4.9276 0.19450049999999997 0.25657175
v 4.9276 0.25933400000000006 0.29552900000000004
v 4.9276 0.32416750000000005 0.33448625
v 4.9276 0.38900100000000004 0.37344350000000004
v 4.9276 0.45383450000000003 0.41240075
v 4.9276 0.518668 0.451358
v 5.588 -0.477012 0.504698
v 5.588 -0.41738549999999996 0.46888399999999997
v 5.588 -0.357759 0.43307
v 5.588 -0.2981325 0.39725600000000005
v 5.588 -0.238506 0.361442
v 5.588 -0.17887949999999997 0.325628
v 5.588 -0.119253 0.289814
v 5.588 -0.05962650000000003 0.254
v 5.588 0.0 0.218186
v 5.588 0.05962650000000003 0.254
v 5.588 0.11925300000000005 0.289814
v 5.588 0.17887949999999997 0.325628
v 5.588 0.238506 0.361442
v 5.588 0.2981325 0.39725600000000005
v 5.588 0.35775899999999994 0.43306999999999995
v 5.588 0.41738549999999996 0.46888399999999997
v 5.588 0.477012 0.504698
v 6.2484 -0.419862 0.549148
v 6.2484 -0.36737925 0.51762025
v 6.2484 -0.3148965 0.4860925
v 6.2484 -0.26241375 0.45456474999999996
v 6.2484 -0.209931 0.423037
v 6.2484 -0.15744825 0.39150925
v 6.2484 -0.10496549999999999 0.35998149999999995
v 6.2484 -0.05248275000000002 0.32845375
v 6.2484 0.0 0.29692599999999997
v 6.2484 0.05248275000000002 0.32845375
v 6.2484 0.10496549999999999 0.35998149999999995
v 6.2484 0.15744825 0.39150925
v 6.2484 0.20993100000000003 0.423037
v 6.2484 0.26241375000000006 0.45456475
v 6.2484 0.31489649999999997 0.4860924999999999
v 6.2484 0.36737925 0.51762025
v 6.2484 0.419862 0.549148
v 6.908799999999999 -0.342138 0.580898
v 6.908799999999999 -0.29937075 0.5552122500000001
v 6.908799999999999 -0.2566035 0.5295265
v 6.908799999999999 -0.21383625 0.50384075
v 6.908799999999999 -0.171069 0.478155
v 6.908799999999999 -0.12830175 0.45246925
v 6.908799999999999 -0.08553450000000001 0.4267835
v 6.908799999999999 -0.04276724999999998 0.40109775
v 6.908799999999999 0.0 0.37541199999999997
v 6.908799999999999 0.04276724999999998 0.40109775
v 6.908799999999999 0.08553450000000001 0.4267835
v 6.908799999999999 0.12830175 0.45246925
v 6.908799999999999 0.17106899999999997 0.478155
v 6.908799999999999 0.21383625 0.50384075
v 6.908799999999999 0.25660350000000004 0.5295265
v 6.908799999999999 0.29937074999999996 0.55521225
v 6.908799999999999 0.342138 0.580898
v 7.5691999999999995 -0.23748999999999998 0.607314
v 7.5691999999999995 -0.20780374999999998 0.58816875
v 7.5691999999999995 -0.17811749999999998 0.5690235
v 7.5691999999999995 -0.14843125 0.54987825
v 7.5691999999999995 -0.11874499999999999 0.530733
v 7.5691999999999995 -0.08905874999999999 0.51158775
v 7.5691999999999995 -0.059372499999999995 0.49244249999999995
v 7.5691999999999995 -0.029686249999999997 0.47329724999999995
v 7.5691999999999995 0.0 0.45415199999999994
v 7.5691999999999995 0.029686250000000025 0.47329725
v 7.5691999999999995 0.059372499999999995 0.49244249999999995
v 7.5691999999999995 0.08905874999999996 0.51158775
v 7.5691999999999995 0.11874499999999999 0.530733
v 7.5691999999999995 0.14843125000000001 0.54987825
v 7.5691999999999995 0.17811749999999998 0.5690235
v 7.5691999999999995 0.20780374999999995 0.58816875
v 7.5691999999999995 0.23748999999999998 0.607314
v 8.254999999999999 -0.09016999999999999 0.594614
v 8.254999999999999 -0.07889874999999999 0.587248
v 8.254999999999999 -0.0676275 0.579882
v 8.254999999999999 -0.05635624999999999 0.572516
v 8.254999999999999 -0.04508499999999999 0.56515
v 8.254999999999999 -0.03381375 0.557784
v 8.254999999999999 -0.022542499999999993 0.550418
v 8.254999999999999 -0.011271249999999997 0.543052
v 8.254999999999999 0.0 0.535686
v 8.254999999999999 0.011271249999999997 0.543052
v 8.254999999999999 0.022542499999999993 0.550418
v 8.254999999999999 0.03381374999999999 0.557784
v 8.254999999999999 0.045085 0.56515
v 8.254999999999999 0.05635624999999998 0.572516
v 8.254999999999999 0.0676275 0.579882
v 8.254999999999999 0.07889874999999998 0.587248
v 8.254999999999999 0.09016999999999999 0.594614
v 8.254999999999999 -0.09118599999999999 0.61468
v 8.254999999999999 -0.07978774999999999 0.61468
v 8.254999999999999 -0.06838949999999999 0.61468
v 8.254999999999999 -0.05699124999999999 0.61468
v 8.254999999999999 -0.045592999999999995 0.61468
v 8.254999999999999 -0.034194749999999996 0.61468
v 8.254999999999999 -0.022796499999999997 0.61468
v 8.254999999999999 -0.011398249999999999 0.61468
v 8.254999999999999 0.0 0.61468
v 8.254999999999999 0.011398249999999999 0.61468
v 8.254999999999999 0.022796499999999997 0.61468
v 8.254999999999999 0.034194749999999996 0.61468
v 8.254999999999999 0.045592999999999995 0.61468
v 8.254999999999999 0.05699124999999999 0.61468
v 8.254999999999999 0.06838949999999999 0.61468
v 8.254999999999999 0.07978774999999999 0.61468
v 8.254999999999999 0.09118599999999999 0.61468
v 8.509 -0.160528 0.65405
v 8.509 -0.140462 0.65405
v 8.509 -0.120396 0.65405
v 8.509 -0.10033 0.65405
v 8.509 -0.080264 0.65405
v 8.509 -0.060198 0.65405
v 8.509 -0.040132 0.65405
v 8.509 -0.020066 0.65405
v 8.509 0.0 0.65405
v 8.509 0.020066 0.65405
v 8.509 0.040132 0.65405
v 8.509 0.060198 0.65405
v 8.509 0.080264 0.65405
v 8.509 0.10033000000000003 0.65405
v 8.509 0.120396 0.65405
v 8.509 0.14046199999999998 0.65405
v 8.509 0.160528 0.65405
f 2 18 19
f 3 19 20
f 4 20 21
f 5 21 22
f 6 22 23
f 7 23 24
f 8 24 25
f 9 25 26
f 10 26 27
f 11 27 28
f 12 28 29
f 13 29 30
f 14 30 31
f 15 31 32
f 16 32 33
f 17 33 34
f 18 35 19
f 19 35 36
f 19 36 20
f 20 36 37
f 20 37 21
f 21 37 38
f 21 38 22
f 22 38 39
f 22 39 23
f 23 39 40
f 23 40 24
f 24 40 41
f 24 41 25
f 25 41 42
f 25 42 26
f 26 42 43
f 26 43 27
f 27 43 44
f 27 44 28
f 28 44 45
f 28 45 29
f 29 45 46
f 29 46 30
f 30 46 47
f 30 47 31
f 31 47 48
f 31 48 32
f 32 48 49
f 32 49 33
f 33 49 50
f 33 50 34
f 34 50 51
f 35 52 36
f 36 52 53
f 36 53 37
f 37 53 54
f 37 54 38
f 38 54 55
f 38 55 39
f 39 55 56
f 39 56 40
f 40 56 57
f 40 57 41
f 41 57 58
f 41 58 42
f 42 58 59
f 42 59 43
f 43 59 60
f 43 60 44
f 44 60 61
f 44 61 45
f 45 61 62
f 45 62 46
f 46 62 63
f 46 63 47
f 47 63 64
f 47 64 48
f 48 64 65
f 48 65 49
f 49 65 66
f 49 66 50
f 50 66 67
f 50 67 51
f 51 67 68
f 52 69 53
f 53 69 70
f 53 70 54
f 54 70 71
f 54 71 55
f 55 71 72
f 55 72 56
f 56 72 73
f 56 73 57
f 57 73 74
f 57 74 58
f 58 74 75
f 58 75 59
f 59 75 76
f 59 76 60
f 60 76 77
f 60 77 61
f 61 77 78
f 61 78 62
f 62 78 79
f 62 79 63
f 63 79 80
f 63 80 64
f 64 80 81
f 64 81 65
f 65 81 82
f 65 82 66
f 66 82 83
f 66 83 67
f 67 83 84
f 67 84 68
f 68 84 85
f 69 86 70
f 70 86 87
f 70 87 71
f 71 87 88
f 71 88 72
f 72 88 89
f 72 89 73
f 73 89 90
f 73 90 74
f 74 90 91
f 74 91 75
f 75 91 92
f 75 92 76
f 76 92 93
f 76 93 77
f 77 93 94
f 77 94 78
f 78 94 95
f 78 95 79
f 79 95 96
f 79 96 80
f 80 96 97
f 80 97 81
f 81 97 98
f 81 98 82
f 82 98 99
f 82 99 83
f 83 99 100
f 83 100 84
f 84 100 101
f 84 101 85
f 85 101 102
f 86 103 87
f 87 103 104
f 87 104 88
f 88 104 105
f 88 105 89
f 89 105 106
f 89 106 90
f 90 106 107
f 90 107 91
f 91 107 108
f 91 108 92
f 92 108 109
f 92 109 93
f 93 109 110
f 93 110 94
f 94 110 111
f 94 111 95
f 95 111 112
f 95 112 96
f 96 112 113
f 96 113 97
f 97 113 114
f 97 114 98
f 98 114 115
f 98 115 99
f 99 115 116
f 99 116 100
f 100 116 117
f 100 117 101
f 101 117 118
f 101 118 102
f 102 118 119
f 103 120 104
f 104 120 121
f 104 121 105
f 105 121 122
f 105 122 106
f 106 122 123
f 106 123 107
f 107 123 124
f 107 124 108
f 108 124 125
f 108 125 109
f 109 125 126
f 109 126 110
f 110 126 127
f 110 127 111
f 111 127 128
f 111 128 112
f 112 128 129
f 112 129 113
f 113 129 130
f 113 130 114
f 114 130 131
f 114 131 115
f 115 131 132
f 115 132 116
f 116 132 133
f 116 133 117
f 117 133 134
f 117 134 118
f 118 134 135
f 118 135 119
f 119 135 136
f 120 137 121
f 121 137 138
f 121 138 122
f 122 138 139
f 122 139 123
f 123 139 140
f 123 140 124
f 124 140 141
f 124 141 125
f 125 141 142
f 125 142 126
f 126 142 143
f 126 143 127
f 127 143 144
f 127 144 128
f 128 144 145
f 128 145 129
f 129 145 146
f 129 146 130
f 130 146 147
f 130 147 131
f 131 147 148
f 131 148 132
f 132 148 149
f 132 149 133
f 133 149 150
f 133 150 134
f 134 150 151
f 134 151 135
f 135 151 152
f 135 152 136
f 136 152 153
f 137 154 138
f 138 154 155
f 138 155 139
f 139 155 156
f 139 156 140
f 140 156 157
f 140 157 141
f 141 157 158
f 141 158 142
f 142 158 159
f 142 159 143
f 143 159 160
f 143 160 144
f 144 160 161
f 144 161 145
f 145 161 162
f 145 162 146
f 146 162 163
f 146 163 147
f 147 163 164
f 147 164 148
f 148 164 165
f 148 165 149
f 149 165 166
f 149 166 150
f 150 166 167
f 150 167 151
f 151 167 168
f 151 168 152
f 152 168 169
f 152 169 153
f 153 169 170
f 154 171 155
f 155 171 172
f 155 172 156
f 156 172 173
f 156 173 157
f 157 173 174
f 157 174 158
f 158 174 175
f 158 175 159
f 159 175 176
f 159 176 160
f 160 176 177
f 160 177 161
f 161 177 178
f 161 178 162
f 162 178 179
f 162 179 163
f 163 179 180
f 163 180 164
f 164 180 181
f 164 181 165
f 165 181 182
f 165 182 166
f 166 182 183
f 166 183 167
f 167 183 184
f 167 184 168
f 168 184 185
f 168 185 169
f 169 185 186
f 169 186 170
f 170 186 187
f 171 188 172
f 172 188 189
f 172 189 173
f 173 189 190
f 173 190 174
f 174 190 191
f 174 191 175
f 175 191 192
f 175 192 176
f 176 192 193
f 176 193 177
f 177 193 194
f 177 194 178
f 178 194 195
f 178 195 179
f 179 195 196
f 179 196 180
f 180 196 197
f 180 197 181
f 181 197 198
f 181 198 182
f 182 198 199
f 182 199 183
f 183 199 200
f 183 200 184
f 184 200 201
f 184 201 185
f 185 201 202
f 185 202 186
f 186 202 203
f 186 203 187
f 187 203 204
f 188 205 189
f 189 205 206
f 189 206 190
f 190 206 207
f 190 207 191
f 191 207 208
f 191 208 192
f 192 208 209
f 192 209 193
f 193 209 210
f 193 210 194
f 194 210 211
f 194 211 195
f 195 211 212
f 195 212 196
f 196 212 213
f 196 213 197
f 197 213 214
f 197 214 198
f 198 214 215
f 198 215 199
f 199 215 216
f 199 216 200
f 200 216 217
f 200 217 201
f 201 217 218
f 201 218 202
f 202 218 219
f 202 219 203
f 203 219 220
f 203 220 204
f 204 220 221
f 205 222 206
f 206 222 223
f 206 223 207
f 207 223 224
f 207 224 208
f 208 224 225
f 208 225 209
f 209 225 226
f 209 226 210
f 210 226 227
f 210 227 211
f 211 227 228
f 211 228 212
f 212 228 229
f 212 229 213
f 213 229 230
f 213 230 214
f 214 230 231
f 214 231 215
f 215 231 232
f 215 232 216
f 216 232 233
f 216 233 217
f 217 233 234
f 217 234 218
f 218 234 235
f 218 235 219
f 219 235 236
f 219 236 220
f 220 236 237
f 220 237 221
f 221 237 238
f 222 239 223
f 223 239 240
f 223 240 224
f 224 240 241
f 224 241 225
f 225 241 242
f 225 242 226
f 226 242 243
f 226 243 227
f 227 243 244
f 227 244 228
f 228 244 245
f 228 245 229
f 229 245 246
f 229 246 230
f 230 246 247
f 230 247 231
f 231 247 248
f 231 248 232
f 232 248 249
f 232 249 233
f 233 249 250
f 233 250 234
f 234 250 251
f 234 251 235
f 235 251 252
f 235 252 236
f 236 252 253
f 236 253 237
f 237 253 254
f 237 254 238
f 238 254 255
f 256 273 257
f 257 273 274
f 257 274 258
f 258 274 275
f 258 275 259
f 259 275 276
f 259 276 260
f 260 276 277
f 260 277 261
f 261 277 278
f 261 278 262
f 262 278 279
f 262 279 263
f 263 279 280
f 263 280 264
f 264 280 281
f 264 281 265
f 265 281 282
f 265 282 266
f 266 282 283
f 266 283 267
f 267 283 284
f 267 284 268
f 268 284 285
f 268 285 269
f 269 285 286
f 269 286 270
f 270 286 287
f 270 287 271
f 271 287 288
f 271 288 272
f 272 288 289
f 273 290 274
f 274 290 291
f 274 291 275
f 275 291 292
f 275 292 276
f 276 292 293
f 276 293 277
f 277 293 294
f 277 294 278
f 278 294 295
f 278 295 279
f 279 295 296
f 279 296 280
f 280 296 297
f 280 297 281
f 281 297 298
f 281 298 282
f 282 298 299
f 282 299 283
f 283 299 300
f 283 300 284
f 284 300 301
f 284 301 285
f 285 301 302
f 285 302 286
f 286 302 303
f 286 303 287
f 287 303 304
f 287 304 288
f 288 304 305
f 288 305 289
f 289 305 306
f 290 307 291
f 291 307 308
f 291 308 292
f 292 308 309
f 292 309 293
f 293 309 310
f 293 310 294
f 294 310 311
f 294 311 295
f 295 311 312
f 295 312 296
f 296 312 313
f 296 313 297
f 297 313 314
f 297 314 298
f 298 314 315
f 298 315 299
f 299 315 316
f 299 316 300
f 300 316 317
f 300 317 301
f 301 317 318
f 301 318 302
f 302 318 319
f 302 319 303
f 303 319 320
f 303 320 304
f 304 320 321
f 304 321 305
f 305 321 322
f 305 322 306
f 306 322 323
f 307 324 308
f 308 324 325
f 308 325 309
f 309 325 326
f 309 326 310
f 310 326 327
f 310 327 311
f 311 327 328
f 311 328 312
f 312 328 329
f 312 329 313
f 313 329 330
f 313 330 314
f 314 330 331
f 314 331 315
f 315 331 332
f 315 332 316
f 316 332 333
f 316 333 317
f 317 333 334
f 317 334 318
f 318 334 335
f 318 335 319
f 319 335 336
f 319 336 320
f 320 336 337
f 320 337 321
f 321 337 338
f 321 338 322
f 322 338 339
f 322 339 323
f 323 339 340
f 324 341 325
f 325 341 342
f 325 342 326
f 326 342 343
f 326 343 327
f 327 343 344
f 327 344 328
f 328 344 345
f 328 345 329
f 329 345 346
f 329 346 330
f 330 346 347
f 330 347 331
f 331 347 348
f 331 348 332
f 332 348 349
f 332 349 333
f 333 349 350
f 333 350 334
f 334 350 351
f 334 351 335
f 335 351 352
f 335 352 336
f 336 352 353
f 336 353 337
f 337 353 354
f 337 354 338
f 338 354 355
f 338 355 339
f 339 355 356
f 339 356 340
f 340 356 357
f 341 358 342
f 342 358 359
f 342 359 343
f 343 359 360
f 343 360 344
f 344 360 361
f 344 361 345
f 345 361 362
f 345 362 346
f 346 362 363
f 346 363 347
f 347 363 364
f 347 364 348
f 348 364 365
f 348 365 349
f 349 365 366
f 349 366 350
f 350 366 367
f 350 367 351
f 351 367 368
f 351 368 352
f 352 368 369
f 352 369 353
f 353 369 370
f 353 370 354
f 354 370 371
f 354 371 355
f 355 371 372
f 355 372 356
f 356 372 373
f 356 373 357
f 357 373 374
f 375 392 376
f 376 392 393
f 376 393 377
f 377 393 394
f 377 394 378
f 378 394 395
f 378 395 379
f 379 395 396
f 379 396 380
f 380 396 397
f 380 397 381
f 381 397 398
f 381 398 382
f 382 398 399
f 382 399 383
f 383 399 400
f 383 400 384
f 384 400 401
f 384 401 385
f 385 401 402
f 385 402 386
f 386 402 403
f 386 403 387
f 387 403 404
f 387 404 388
f 388 404 405
f 388 405 389
f 389 405 406
f 389 406 390
f 390 406 407
f 390 407 391
f 391 407 408
