                                                                        S      1
1H,,1H;,,                                                               G      1
40H\\10.49.32.64\rhino_jobs\barge_s3_xz.igs,                            G      2
26HRhinoceros ( Apr 17 2023 ),31HTrout Lake IGES 012 Apr 17 2023,       G      3
32,38,6,308,15,                                                         G      4
,                                                                       G      5
1.0D0,6,1HM,1,0.000254D0,13H230511.160251,                              G      6
0.001D0,                                                                G      7
39.89000000000001D0,                                                    G      8
4Hmaaf,                                                                 G      9
3Hdtu,                                                                  G     10
10,0,13H230511.160251;                                                  G     11
     314       1       0       0       0       0       0       000000200D      1
     314       0       1       1       0       0       0   COLOR       0D      2
     406       2       0       0       1       0       0       000000300D      3
     406       0      -1       1       3       0       0LEVELDEF       0D      4
     406       3       0       0       0       0       0       000010300D      5
     406       0       0       1      15       0       0 NAMETXT       0D      6
     128       4       0       0       1       0       0       000000000D      7
     128       0      -1      12       8       0       0 TrimSrf       0D      8
     406      16       0       0       0       0       0       000010300D      9
     406       0       0       1      15       0       0 NAMETXT       0D     10
     128      17       0       0       1       0       0       000000000D     11
     128       0      -1      12       8       0       0 TrimSrf       0D     12
314,0.0,0.0,0.0,20HRGB(   0,   0,   0 );                         0000001P      1
406,2,1,7HDefault;                                               0000003P      2
406,1,7HTrimSrf;                                                 0000005P      3
128,1,3,1,3,0,0,1,0,0,0.0D0,0.0D0,1.0D0,1.0D0,-129440.0D0,       0000007P      4
-129440.0D0,-129440.0D0,-129440.0D0,-124590.0D0,-124590.0D0,     0000007P      5
-124590.0D0,-124590.0D0,1.0D0,1.0D0,1.0D0,1.0D0,1.0D0,1.0D0,     0000007P      6
1.0D0,1.0D0,7.275957614183426D-15,-5.0D0,2.275730011449356D-15,  0000007P      7
39.89000000000001D0,-5.0D0,1.023181539494544D-15,                0000007P      8
1.000444171950221D-14,-4.999999999999999D0,1.616666666666668D0,  0000007P      9
39.89000000000001D0,-5.0D0,1.616666666666666D0,                  0000007P     10
1.2732925824821D-14,-5.000000000000004D0,3.233333333333337D0,    0000007P     11
39.89000000000001D0,-5.0D0,3.233333333333331D0,                  0000007P     12
1.546140993013978D-14,-5.000000000000002D0,4.850000000000001D0,  0000007P     13
39.89000000000001D0,-5.0D0,4.849999999999996D0,0.0D0,1.0D0,      0000007P     14
-129440.0D0,-124590.0D0,0,1,5;                                   0000007P     15
406,1,7HTrimSrf;                                                 0000009P     16
128,1,3,1,3,0,0,1,0,0,0.0D0,0.0D0,1.0D0,1.0D0,124590.0D0,        0000011P     17
124590.0D0,124590.0D0,124590.0D0,129440.0D0,129440.0D0,          0000011P     18
129440.0D0,129440.0D0,1.0D0,1.0D0,1.0D0,1.0D0,1.0D0,1.0D0,1.0D0, 0000011P     19
1.0D0,1.546140993013978D-14,-5.000000000000002D0,                0000011P     20
4.850000000000001D0,-39.88999999999999D0,-5.000000000031981D0,   0000011P     21
4.849999999999996D0,1.2732925824821D-14,-5.000000000000004D0,    0000011P     22
3.233333333333337D0,-39.88999999999999D0,-5.000000000031981D0,   0000011P     23
3.233333333333331D0,1.000444171950221D-14,-4.999999999999999D0,  0000011P     24
1.616666666666668D0,-39.88999999999999D0,-5.000000000031981D0,   0000011P     25
1.616666666666666D0,7.275957614183426D-15,-5.0D0,                0000011P     26
2.275730011449356D-15,-39.88999999999999D0,-5.000000000031981D0, 0000011P     27
1.023181539494544D-15,0.0D0,1.0D0,124590.0D0,129440.0D0,0,1,9;   0000011P     28
S0000001G0000011D0000012P0000028                                        T      1
