                                                                        S      1
1H,,1H;,,                                                               G      1
40H\\10.49.32.64\rhino_jobs\barge_s1_yz.igs,                            G      2
26HRhinoceros ( Apr 17 2023 ),31HTrout Lake IGES 012 Apr 17 2023,       G      3
32,38,6,308,15,                                                         G      4
,                                                                       G      5
1.0D0,6,1HM,1,0.000254D0,13H230511.160013,                              G      6
0.001D0,                                                                G      7
40.04000000000398D0,                                                    G      8
4Hmaaf,                                                                 G      9
3Hdtu,                                                                  G     10
10,0,13H230511.160013;                                                  G     11
     314       1       0       0       0       0       0       000000200D      1
     314       0       1       1       0       0       0   COLOR       0D      2
     406       2       0       0       1       0       0       000000300D      3
     406       0      -1       1       3       0       0LEVELDEF       0D      4
     406       3       0       0       0       0       0       000010300D      5
     406       0       0       1      15       0       0 NAMETXT       0D      6
     128       4       0       0       1       0       0       000010000D      7
     128       0      -1      18       0       0       0 TrimSrf       0D      8
     126      22       0       0       1       0       0       000010500D      9
     126       0      -1       4       1       0       0 TrimBnd       1D     10
     126      26       0       0       1       0       0       000010500D     11
     126       0      -1       5       1       0       0 TrimBnd       2D     12
     126      31       0       0       1       0       0       000010500D     13
     126       0      -1       4       1       0       0 TrimBnd       3D     14
     126      35       0       0       1       0       0       000010500D     15
     126       0      -1       4       1       0       0 TrimBnd       4D     16
     102      39       0       0       1       0       0       000010500D     17
     102       0      -1       1       0       0       02D CURVE       0D     18
     126      40       0       0       1       0       0       000010000D     19
     126       0      -1       6       2       0       0 TrimBnd       1D     20
     126      46       0       0       1       0       0       000010000D     21
     126       0      -1       8       1       0       0 TrimBnd       2D     22
     126      54       0       0       1       0       0       000010000D     23
     126       0      -1       7       2       0       0 TrimBnd       3D     24
     126      61       0       0       1       0       0       000010000D     25
     126       0      -1      10       1       0       0 TrimBnd       4D     26
     102      71       0       0       1       0       0       000010000D     27
     102       0      -1       1       0       0       03D CURVE       0D     28
     142      72       0       0       1       0       0       000010000D     29
     142       0      -1       1       0       0       0 TrimBnd       1D     30
     144      73       0       0       1       0       0       000000000D     31
     144       0      -1       1       0       0       0 TrimSrf       0D     32
     406      74       0       0       0       0       0       000010300D     33
     406       0       0       1      15       0       0 NAMETXT       0D     34
     128      75       0       0       1       0       0       000010000D     35
     128       0      -1       7       8       0       0 TrimSrf       0D     36
     126      82       0       0       1       0       0       000010500D     37
     126       0      -1       7       1       0       0 TrimBnd       1D     38
     126      89       0       0       1       0       0       000010500D     39
     126       0      -1       8       1       0       0 TrimBnd       2D     40
     126      97       0       0       1       0       0       000010500D     41
     126       0      -1       8       1       0       0 TrimBnd       3D     42
     126     105       0       0       1       0       0       000010500D     43
     126       0      -1       7       1       0       0 TrimBnd       4D     44
     102     112       0       0       1       0       0       000010500D     45
     102       0      -1       1       0       0       02D CURVE       0D     46
     126     113       0       0       1       0       0       000010000D     47
     126       0      -1       5       1       0       0 TrimBnd       1D     48
     126     118       0       0       1       0       0       000010000D     49
     126       0      -1      10       1       0       0 TrimBnd       2D     50
     126     128       0       0       1       0       0       000010000D     51
     126       0      -1       9       1       0       0 TrimBnd       3D     52
     126     137       0       0       1       0       0       000010000D     53
     126       0      -1       6       1       0       0 TrimBnd       4D     54
     102     143       0       0       1       0       0       000010000D     55
     102       0      -1       1       0       0       03D CURVE       0D     56
     142     144       0       0       1       0       0       000010000D     57
     142       0      -1       1       0       0       0 TrimBnd       1D     58
     144     145       0       0       1       0       0       000000000D     59
     144       0      -1       1       0       0       0 TrimSrf       0D     60
314,0.0,0.0,0.0,20HRGB(   0,   0,   0 );                         0000001P      1
406,2,1,7HDefault;                                               0000003P      2
406,1,7HTrimSrf;                                                 0000005P      3
128,2,3,2,3,0,0,0,0,0,0.0D0,0.0D0,0.0D0,300.0D0,300.0D0,300.0D0, 0000007P      4
0.0D0,0.0D0,0.0D0,0.0D0,10000.0D0,10000.0D0,10000.0D0,10000.0D0, 0000007P      5
1.0D0,0.7071067811865457D0,1.0D0,1.0D0,0.7071067811865469D0,     0000007P      6
1.0D0,0.9999999999999997D0,0.7071067811865468D0,                 0000007P      7
0.9999999999999997D0,1.0D0,0.7071067811865457D0,1.0D0,           0000007P      8
-39.88999999999999D0,-5.000000000031981D0,5.0D0,                 0000007P      9
-40.03999999999998D0,-5.000000000032101D0,5.0D0,                 0000007P     10
-40.0400000000001D0,-4.850000000032101D0,5.0D0,                  0000007P     11
-39.88999999999999D0,-5.00000000003198D0,1.666666666666666D0,    0000007P     12
-40.03999999999998D0,-5.000000000032101D0,1.666666666666674D0,   0000007P     13
-40.04000000000011D0,-4.850000000032102D0,1.666666666666667D0,   0000007P     14
-39.88999999999999D0,-5.000000000031983D0,-1.666666666666667D0,  0000007P     15
-40.03999999999997D0,-5.000000000032101D0,-1.666666666666675D0,  0000007P     16
-40.04000000000012D0,-4.850000000032101D0,-1.666666666666668D0,  0000007P     17
-39.88999999999999D0,-5.000000000031981D0,-5.0D0,                0000007P     18
-40.03999999999998D0,-5.000000000032101D0,-5.0D0,                0000007P     19
-40.0400000000001D0,-4.850000000032101D0,-5.0D0,0.0D0,300.0D0,   0000007P     20
0.0D0,10000.0D0,0,1,5;                                           0000007P     21
126,1,1,1,0,1,0,-300.0D0,-300.0D0,1.818989403545856D-12,         0000009P     22
1.818989403545856D-12,1.0D0,1.0D0,300.0D0,5000.0D0,0.0D0,0.0D0,  0000009P     23
4999.999999999999D0,0.0D0,-300.0D0,1.818989403545856D-12,0.0D0,  0000009P     24
0.0D0,1.0D0,0,1,5;                                               0000009P     25
126,1,1,1,0,1,0,1.818989403545856D-12,1.818989403545856D-12,     0000011P     26
4849.999999999994D0,4849.999999999994D0,1.0D0,1.0D0,0.0D0,       0000011P     27
4999.999999999999D0,0.0D0,0.0D0,150.0000000000055D0,0.0D0,       0000011P     28
1.818989403545856D-12,4849.999999999994D0,0.0D0,0.0D0,1.0D0,0,1, 0000011P     29
5;                                                               0000011P     30
126,1,1,1,0,1,0,4849.999999999994D0,4849.999999999994D0,         0000013P     31
5149.999999999994D0,5149.999999999994D0,1.0D0,1.0D0,0.0D0,       0000013P     32
150.0000000000055D0,0.0D0,300.0D0,150.0000000000036D0,0.0D0,     0000013P     33
4849.999999999994D0,5149.999999999994D0,0.0D0,0.0D0,1.0D0,0,1,5; 0000013P     34
126,1,1,1,0,1,0,5149.999999999994D0,5149.999999999994D0,         0000015P     35
9999.999999999989D0,9999.999999999989D0,1.0D0,1.0D0,300.0D0,     0000015P     36
150.0000000000036D0,0.0D0,300.0D0,5000.0D0,0.0D0,                0000015P     37
5149.999999999994D0,9999.999999999989D0,0.0D0,0.0D0,1.0D0,0,1,5; 0000015P     38
102,4,9,11,13,15,0,1,5;                                          0000017P     39
126,2,2,1,0,0,0,-300.0D0,-300.0D0,-300.0D0,0.0D0,0.0D0,0.0D0,    0000019P     40
1.0D0,0.7071067811865476D0,1.0D0,-40.04000000000011D0,           0000019P     41
-4.850000000032102D0,-2.273736754432321D-16,                     0000019P     42
-40.03999999999998D0,-5.000000000032099D0,8.366570090763576D-19, 0000019P     43
-39.88999999999999D0,-5.000000000031982D0,1.023181539494545D-15, 0000019P     44
-300.0D0,0.0D0,0.0D0,0.0D0,1.0D0,0,1,5;                          0000019P     45
126,3,3,1,0,1,0,-129440.0D0,-129440.0D0,-129440.0D0,-129440.0D0, 0000021P     46
-124590.0D0,-124590.0D0,-124590.0D0,-124590.0D0,1.0D0,1.0D0,     0000021P     47
1.0D0,1.0D0,-39.88999999999999D0,-5.000000000031981D0,           0000021P     48
1.023181539494544D-15,-39.88999999999999D0,-5.000000000031981D0, 0000021P     49
1.616666666666666D0,-39.88999999999999D0,-5.000000000031981D0,   0000021P     50
3.233333333333331D0,-39.88999999999999D0,-5.000000000031981D0,   0000021P     51
4.849999999999996D0,-129440.0D0,-124590.0D0,1.0D0,0.0D0,0.0D0,0, 0000021P     52
1,5;                                                             0000021P     53
126,2,2,1,0,0,0,4849.999999999995D0,4849.999999999995D0,         0000023P     54
4849.999999999995D0,5149.999999999995D0,5149.999999999995D0,     0000023P     55
5149.999999999995D0,1.0D0,0.7071067811865819D0,1.0D0,-39.89D0,   0000023P     56
-5.000000000031981D0,4.849999999999999D0,-40.03999999999997D0,   0000023P     57
-5.000000000032084D0,4.849999999999992D0,-40.0400000000001D0,    0000023P     58
-4.850000000032105D0,4.849999999999997D0,4849.999999999995D0,    0000023P     59
5149.999999999995D0,0.0D0,0.0D0,1.0D0,0,1,5;                     0000023P     60
126,3,3,1,0,1,0,-9700.000000000022D0,-9700.000000000022D0,       0000025P     61
-9700.000000000022D0,-9700.000000000022D0,-4849.999999999999D0,  0000025P     62
-4849.999999999999D0,-4849.999999999999D0,-4849.999999999999D0,  0000025P     63
1.0D0,1.0D0,1.0D0,1.0D0,-40.0400000000001D0,                     0000025P     64
-4.850000000032101D0,4.850000000000021D0,-40.04000000000011D0,   0000025P     65
-4.850000000032102D0,3.233333333333346D0,-40.04000000000011D0,   0000025P     66
-4.850000000032102D0,1.616666666666672D0,-40.04000000000011D0,   0000025P     67
-4.850000000032103D0,-2.955857780762017D-15,                     0000025P     68
-9700.000000000022D0,-4849.999999999999D0,1.0D0,0.0D0,0.0D0,0,1, 0000025P     69
5;                                                               0000025P     70
102,4,19,21,23,25,0,1,5;                                         0000027P     71
142,0,7,17,27,1,0,1,5;                                           0000029P     72
144,7,1,0,29,0,1,5;                                              0000031P     73
406,1,7HTrimSrf;                                                 0000033P     74
128,1,1,1,1,0,0,1,0,0,0.0D0,0.0D0,5000.0D0,5000.0D0,0.0D0,0.0D0, 0000035P     75
10000.0D0,10000.0D0,1.0D0,1.0D0,1.0D0,1.0D0,                     0000035P     76
-40.04000000000398D0,-3.210094828710644D-11,-5.0D0,              0000035P     77
-40.03999999999997D0,-5.000000000032101D0,-5.0D0,                0000035P     78
-40.04000000000398D0,-3.210094828710644D-11,5.0D0,               0000035P     79
-40.03999999999997D0,-5.000000000032101D0,5.0D0,0.0D0,5000.0D0,  0000035P     80
0.0D0,10000.0D0,0,1,33;                                          0000035P     81
126,3,3,1,0,1,0,0.0D0,0.0D0,0.0D0,0.0D0,4849.999999999999D0,     0000037P     82
4849.999999999999D0,4849.999999999999D0,4849.999999999999D0,     0000037P     83
1.0D0,1.0D0,1.0D0,1.0D0,0.0D0,5000.000000000003D0,0.0D0,         0000037P     84
1616.666666666667D0,5000.000000000001D0,0.0D0,                   0000037P     85
3233.333333333333D0,4999.999999999999D0,0.0D0,4850.0D0,          0000037P     86
4999.999999999998D0,0.0D0,0.0D0,4849.999999999999D0,0.0D0,0.0D0, 0000037P     87
1.0D0,0,1,33;                                                    0000037P     88
126,3,3,1,0,1,0,4849.999999999999D0,4849.999999999999D0,         0000039P     89
4849.999999999999D0,4849.999999999999D0,9700.000000000013D0,     0000039P     90
9700.000000000013D0,9700.000000000013D0,9700.000000000013D0,     0000039P     91
1.0D0,1.0D0,1.0D0,1.0D0,4850.0D0,4999.999999999998D0,0.0D0,      0000039P     92
4849.999999999998D0,6616.666666666668D0,0.0D0,                   0000039P     93
4849.999999999998D0,8233.333333333343D0,0.0D0,                   0000039P     94
4849.999999999997D0,9850.0D0,0.0D0,4849.999999999999D0,          0000039P     95
9700.000000000013D0,0.0D0,0.0D0,1.0D0,0,1,33;                    0000039P     96
126,3,3,1,0,1,0,9700.000000000013D0,9700.000000000013D0,         0000041P     97
9700.000000000013D0,9700.000000000013D0,14550.00000000002D0,     0000041P     98
14550.00000000002D0,14550.00000000002D0,14550.00000000002D0,     0000041P     99
1.0D0,1.0D0,1.0D0,1.0D0,4849.999999999997D0,9850.0D0,0.0D0,      0000041P    100
3233.333333333336D0,9850.0D0,0.0D0,1616.666666666667D0,          0000041P    101
9849.999999999927D0,0.0D0,0.0D0,9850.0D0,0.0D0,                  0000041P    102
9700.000000000013D0,14550.00000000002D0,0.0D0,0.0D0,1.0D0,0,1,   0000041P    103
33;                                                              0000041P    104
126,3,3,1,0,1,0,14550.00000000002D0,14550.00000000002D0,         0000043P    105
14550.00000000002D0,14550.00000000002D0,14554.85000000002D0,     0000043P    106
14554.85000000002D0,14554.85000000002D0,14554.85000000002D0,     0000043P    107
1.0D0,1.0D0,1.0D0,1.0D0,0.0D0,9850.0D0,0.0D0,0.0D0,              0000043P    108
8233.333333333334D0,0.0D0,0.0D0,6616.666666666669D0,0.0D0,0.0D0, 0000043P    109
5000.000000000003D0,0.0D0,14550.00000000002D0,                   0000043P    110
14554.85000000002D0,0.0D0,0.0D0,1.0D0,0,1,33;                    0000043P    111
102,4,37,39,41,43,0,1,33;                                        0000045P    112
126,1,1,1,0,1,0,0.0D0,0.0D0,4849.999999999999D0,                 0000047P    113
4849.999999999999D0,1.0D0,1.0D0,-40.04000000000398D0,            0000047P    114
-3.210094828710644D-11,0.0D0,-40.04000000000011D0,               0000047P    115
-4.850000000032103D0,-2.955857780762017D-15,0.0D0,               0000047P    116
4849.999999999999D0,0.0D0,0.0D0,1.0D0,0,1,33;                    0000047P    117
126,3,3,1,0,1,0,4849.999999999999D0,4849.999999999999D0,         0000049P    118
4849.999999999999D0,4849.999999999999D0,9700.000000000022D0,     0000049P    119
9700.000000000022D0,9700.000000000022D0,9700.000000000022D0,     0000049P    120
1.0D0,1.0D0,1.0D0,1.0D0,-40.04000000000011D0,                    0000049P    121
-4.850000000032103D0,-2.955857780762017D-15,                     0000049P    122
-40.04000000000011D0,-4.850000000032102D0,1.616666666666672D0,   0000049P    123
-40.04000000000011D0,-4.850000000032102D0,3.233333333333346D0,   0000049P    124
-40.0400000000001D0,-4.850000000032101D0,4.850000000000021D0,    0000049P    125
4849.999999999999D0,9700.000000000022D0,1.0D0,0.0D0,0.0D0,0,1,   0000049P    126
33;                                                              0000049P    127
126,3,3,1,0,1,0,9700.000000000022D0,9700.000000000022D0,         0000051P    128
9700.000000000022D0,9700.000000000022D0,14550.00000000003D0,     0000051P    129
14550.00000000003D0,14550.00000000003D0,14550.00000000003D0,     0000051P    130
1.0D0,1.0D0,1.0D0,1.0D0,-40.0400000000001D0,                     0000051P    131
-4.850000000032101D0,4.850000000000021D0,-40.04000000000138D0,   0000051P    132
-3.233333333365433D0,4.850000000000009D0,-40.04000000000267D0,   0000051P    133
-1.616666666698767D0,4.850000000000002D0,-40.04000000000398D0,   0000051P    134
-3.210094828710644D-11,4.849999999999994D0,9700.000000000022D0,  0000051P    135
14550.00000000003D0,0.0D0,0.0D0,1.0D0,0,1,33;                    0000051P    136
126,1,1,1,0,1,0,14550.00000000003D0,14550.00000000003D0,         0000053P    137
14554.85000000003D0,14554.85000000003D0,1.0D0,1.0D0,             0000053P    138
-40.04000000000398D0,-3.210094828710644D-11,4.849999999999994D0, 0000053P    139
-40.04000000000398D0,-3.210094828710644D-11,0.0D0,               0000053P    140
14550.00000000003D0,14554.85000000003D0,1.0D0,0.0D0,0.0D0,0,1,   0000053P    141
33;                                                              0000053P    142
102,4,47,49,51,53,0,1,33;                                        0000055P    143
142,0,35,45,55,1,0,1,33;                                         0000057P    144
144,35,1,0,57,0,1,33;                                            0000059P    145
S0000001G0000011D0000060P0000145                                        T      1
