                                                                        S      1
1H,,1H;,,                                                               G      1
40H\\10.49.32.64\rhino_jobs\barge_s2_xy.igs,                            G      2
26HRhinoceros ( Apr 17 2023 ),31HTrout Lake IGES 012 Apr 17 2023,       G      3
32,38,6,308,15,                                                         G      4
,                                                                       G      5
1.0D0,6,1HM,1,0.000254D0,13H230511.160213,                              G      6
0.001D0,                                                                G      7
40.05553300858897D0,                                                    G      8
4Hmaaf,                                                                 G      9
3Hdtu,                                                                  G     10
10,0,13H230511.160213;                                                  G     11
     314       1       0       0       0       0       0       000000200D      1
     314       0       1       1       0       0       0   COLOR       0D      2
     406       2       0       0       1       0       0       000000300D      3
     406       0      -1       1       3       0       0LEVELDEF       0D      4
     406       3       0       0       0       0       0       000010300D      5
     406       0       0       1      15       0       0 NAMETXT       0D      6
     128       4       0       0       1       0       0       000010000D      7
     128       0      -1      20       0       0       0 TrimSrf       0D      8
     126      24       0       0       1       0       0       000010500D      9
     126       0      -1       4       1       0       0 TrimBnd       1D     10
     126      28       0       0       1       0       0       000010500D     11
     126       0      -1       5       1       0       0 TrimBnd       2D     12
     126      33       0       0       1       0       0       000010500D     13
     126       0      -1       5       1       0       0 TrimBnd       3D     14
     126      38       0       0       1       0       0       000010500D     15
     126       0      -1       4       1       0       0 TrimBnd       4D     16
     102      42       0       0       1       0       0       000010500D     17
     102       0      -1       1       0       0       02D CURVE       0D     18
     126      43       0       0       1       0       0       000010000D     19
     126       0      -1       7       2       0       0 TrimBnd       1D     20
     126      50       0       0       1       0       0       000010000D     21
     126       0      -1       4       1       0       0 TrimBnd       2D     22
     126      54       0       0       1       0       0       000010000D     23
     126       0      -1       8       2       0       0 TrimBnd       3D     24
     126      62       0       0       1       0       0       000010000D     25
     126       0      -1       4       1       0       0 TrimBnd       4D     26
     102      66       0       0       1       0       0       000010000D     27
     102       0      -1       1       0       0       03D CURVE       0D     28
     142      67       0       0       1       0       0       000010000D     29
     142       0      -1       1       0       0       0 TrimBnd       1D     30
     144      68       0       0       1       0       0       000000000D     31
     144       0      -1       1       0       0       0 TrimSrf       0D     32
     406      69       0       0       0       0       0       000010300D     33
     406       0       0       1      15       0       0 NAMETXT       0D     34
     128      70       0       0       1       0       0       000010000D     35
     128       0      -1      19       0       0       0 TrimSrf       0D     36
     126      89       0       0       1       0       0       000010500D     37
     126       0      -1       4       1       0       0 TrimBnd       1D     38
     126      93       0       0       1       0       0       000010500D     39
     126       0      -1       3       1       0       0 TrimBnd       2D     40
     126      96       0       0       1       0       0       000010500D     41
     126       0      -1       4       1       0       0 TrimBnd       3D     42
     126     100       0       0       1       0       0       000010500D     43
     126       0      -1       5       1       0       0 TrimBnd       4D     44
     102     105       0       0       1       0       0       000010500D     45
     102       0      -1       1       0       0       02D CURVE       0D     46
     126     106       0       0       1       0       0       000010000D     47
     126       0      -1       9       1       0       0 TrimBnd       1D     48
     126     115       0       0       1       0       0       000010000D     49
     126       0      -1       6       2       0       0 TrimBnd       2D     50
     126     121       0       0       1       0       0       000010000D     51
     126       0      -1       9       1       0       0 TrimBnd       3D     52
     126     130       0       0       1       0       0       000010000D     53
     126       0      -1       8       2       0       0 TrimBnd       4D     54
     102     138       0       0       1       0       0       000010000D     55
     102       0      -1       1       0       0       03D CURVE       0D     56
     142     139       0       0       1       0       0       000010000D     57
     142       0      -1       1       0       0       0 TrimBnd       1D     58
     144     140       0       0       1       0       0       000000000D     59
     144       0      -1       1       0       0       0 TrimSrf       0D     60
     406     141       0       0       0       0       0       000010300D     61
     406       0       0       1      15       0       0 NAMETXT       0D     62
     128     142       0       0       1       0       0       000000000D     63
     128       0      -1      14       8       0       0 TrimSrf       0D     64
     406     156       0       0       0       0       0       000010300D     65
     406       0       0       1      15       0       0 NAMETXT       0D     66
     128     157       0       0       1       0       0       000000000D     67
     128       0      -1      17       0       0       0 TrimSrf       0D     68
     406     174       0       0       0       0       0       000010300D     69
     406       0       0       1      15       0       0 NAMETXT       0D     70
     128     175       0       0       1       0       0       000010000D     71
     128       0      -1      18       0       0       0 TrimSrf       0D     72
     126     193       0       0       1       0       0       000010500D     73
     126       0      -1       4       1       0       0 TrimBnd       1D     74
     126     197       0       0       1       0       0       000010500D     75
     126       0      -1       5       1       0       0 TrimBnd       2D     76
     126     202       0       0       1       0       0       000010500D     77
     126       0      -1       6       1       0       0 TrimBnd       3D     78
     126     208       0       0       1       0       0       000010500D     79
     126       0      -1       5       1       0       0 TrimBnd       4D     80
     102     213       0       0       1       0       0       000010500D     81
     102       0      -1       1       0       0       02D CURVE       0D     82
     126     214       0       0       1       0       0       000010000D     83
     126       0      -1       4       1       0       0 TrimBnd       1D     84
     126     218       0       0       1       0       0       000010000D     85
     126       0      -1       7       2       0       0 TrimBnd       2D     86
     126     225       0       0       1       0       0       000010000D     87
     126       0      -1       4       1       0       0 TrimBnd       3D     88
     126     229       0       0       1       0       0       000010000D     89
     126       0      -1       7       2       0       0 TrimBnd       4D     90
     102     236       0       0       1       0       0       000010000D     91
     102       0      -1       1       0       0       03D CURVE       0D     92
     142     237       0       0       1       0       0       000010000D     93
     142       0      -1       1       0       0       0 TrimBnd       1D     94
     144     238       0       0       1       0       0       000000000D     95
     144       0      -1       1       0       0       0 TrimSrf       0D     96
     406     239       0       0       0       0       0       000010300D     97
     406       0       0       1      15       0       0 NAMETXT       0D     98
     128     240       0       0       1       0       0       000000000D     99
     128       0      -1      17       0       0       0 TrimSrf       0D    100
     406     257       0       0       0       0       0       000010300D    101
     406       0       0       1      15       0       0 NAMETXT       0D    102
     128     258       0       0       1       0       0       000010000D    103
     128       0      -1      17       0       0       0 TrimSrf       0D    104
     126     275       0       0       1       0       0       000010500D    105
     126       0      -1       6       1       0       0 TrimBnd       1D    106
     126     281       0       0       1       0       0       000010500D    107
     126       0      -1       5       1       0       0 TrimBnd       2D    108
     126     286       0       0       1       0       0       000010500D    109
     126       0      -1       5       1       0       0 TrimBnd       3D    110
     126     291       0       0       1       0       0       000010500D    111
     126       0      -1       4       1       0       0 TrimBnd       4D    112
     102     295       0       0       1       0       0       000010500D    113
     102       0      -1       1       0       0       02D CURVE       0D    114
     126     296       0       0       1       0       0       000010000D    115
     126       0      -1       7       2       0       0 TrimBnd       1D    116
     126     303       0       0       1       0       0       000010000D    117
     126       0      -1       9       1       0       0 TrimBnd       2D    118
     126     312       0       0       1       0       0       000010000D    119
     126       0      -1       7       2       0       0 TrimBnd       3D    120
     126     319       0       0       1       0       0       000010000D    121
     126       0      -1       8       1       0       0 TrimBnd       4D    122
     102     327       0       0       1       0       0       000010000D    123
     102       0      -1       1       0       0       03D CURVE       0D    124
     142     328       0       0       1       0       0       000010000D    125
     142       0      -1       1       0       0       0 TrimBnd       1D    126
     144     329       0       0       1       0       0       000000000D    127
     144       0      -1       1       0       0       0 TrimSrf       0D    128
     406     330       0       0       0       0       0       000010300D    129
     406       0       0       1      15       0       0 NAMETXT       0D    130
     128     331       0       0       1       0       0       000000000D    131
     128       0      -1      12       8       0       0 TrimSrf       0D    132
314,0.0,0.0,0.0,20HRGB(   0,   0,   0 );                         0000001P      1
406,2,1,7HDefault;                                               0000003P      2
406,1,7HTrimSrf;                                                 0000005P      3
128,2,3,2,3,0,0,0,0,0,0.0D0,0.0D0,0.0D0,300.0000000000009D0,     0000007P      4
300.0000000000009D0,300.0000000000009D0,0.0D0,0.0D0,0.0D0,0.0D0, 0000007P      5
79850.00000000004D0,79850.00000000004D0,79850.00000000004D0,     0000007P      6
79850.00000000004D0,1.0D0,0.7071067811865457D0,1.0D0,1.0D0,      0000007P      7
0.7071067811865469D0,1.0D0,0.9999999999999997D0,                 0000007P      8
0.7071067811865468D0,0.9999999999999997D0,1.0D0,                 0000007P      9
0.7071067811865457D0,1.0D0,39.96000000000003D0,                  0000007P     10
-4.999999999967963D0,4.850000000000001D0,39.96000000000003D0,    0000007P     11
-4.999999999967963D0,5.0D0,39.95999999999991D0,                  0000007P     12
-4.849999999967963D0,5.0D0,13.34333333333334D0,                  0000007P     13
-4.999999999989302D0,4.850000000000001D0,13.34333333333341D0,    0000007P     14
-4.999999999989304D0,5.000000000000001D0,13.34333333333323D0,    0000007P     15
-4.849999999989303D0,5.000000000000001D0,-13.27333333333334D0,   0000007P     16
-5.000000000010644D0,4.849999999999999D0,-13.2733333333334D0,    0000007P     17
-5.000000000010641D0,5.0D0,-13.27333333333347D0,                 0000007P     18
-4.850000000010641D0,5.000000000000002D0,-39.89000000000001D0,   0000007P     19
-5.000000000031981D0,4.850000000000001D0,-39.89000000000001D0,   0000007P     20
-5.000000000031981D0,5.0D0,-39.89000000000014D0,                 0000007P     21
-4.85000000003198D0,5.0D0,0.0D0,300.0000000000009D0,0.0D0,       0000007P     22
79850.00000000004D0,0,1,5;                                       0000007P     23
126,1,1,1,0,1,0,0.0D0,0.0D0,300.0000000000001D0,                 0000009P     24
300.0000000000001D0,1.0D0,1.0D0,0.0D0,39960.0D0,0.0D0,           0000009P     25
300.0000000000001D0,39959.99999999999D0,0.0D0,0.0D0,             0000009P     26
300.0000000000001D0,0.0D0,0.0D0,1.0D0,0,1,5;                     0000009P     27
126,1,1,1,0,1,0,300.0000000000001D0,300.0000000000001D0,         0000011P     28
40190.00000000005D0,40190.00000000005D0,1.0D0,1.0D0,             0000011P     29
300.0000000000001D0,39959.99999999999D0,0.0D0,                   0000011P     30
300.0000000000009D0,79850.00000000004D0,0.0D0,                   0000011P     31
300.0000000000001D0,40190.00000000005D0,0.0D0,0.0D0,1.0D0,0,1,5; 0000011P     32
126,1,1,1,0,1,0,40190.00000000005D0,40190.00000000005D0,         0000013P     33
40191.00000000005D0,40191.00000000005D0,1.0D0,1.0D0,             0000013P     34
300.0000000000009D0,79850.00000000004D0,0.0D0,0.0D0,             0000013P     35
79850.00000000004D0,0.0D0,40190.00000000005D0,                   0000013P     36
40191.00000000005D0,0.0D0,0.0D0,1.0D0,0,1,5;                     0000013P     37
126,1,1,1,0,1,0,40191.00000000005D0,40191.00000000005D0,         0000015P     38
80081.0000000001D0,80081.0000000001D0,1.0D0,1.0D0,0.0D0,         0000015P     39
79850.00000000004D0,0.0D0,0.0D0,39960.0D0,0.0D0,                 0000015P     40
40191.00000000005D0,80081.0000000001D0,0.0D0,0.0D0,1.0D0,0,1,5;  0000015P     41
102,4,9,11,13,15,0,1,5;                                          0000017P     42
126,2,2,1,0,0,0,0.0D0,0.0D0,0.0D0,300.0000000000009D0,           0000019P     43
300.0000000000009D0,300.0000000000009D0,1.0D0,                   0000019P     44
0.7071067811865518D0,1.0D0,3.637978807091548D-14,-5.0D0,         0000019P     45
4.850000000000001D0,3.032541440052741D-14,-5.0D0,                0000019P     46
4.999999999999999D0,-8.660699381326623D-14,-4.850000000000001D0, 0000019P     47
5.000000000000002D0,0.0D0,300.0000000000009D0,-1.0D0,-0.0D0,     0000019P     48
-0.0D0,0,1,5;                                                    0000019P     49
126,1,1,1,0,1,0,0.0D0,0.0D0,1.0D0,1.0D0,1.0D0,1.0D0,             0000021P     50
-1.138918348664549D-13,-4.850000000000001D0,5.0D0,               0000021P     51
-39.89000000000009D0,-4.850000000031976D0,5.0D0,0.0D0,1.0D0,     0000021P     52
0.0D0,0.0D0,1.0D0,0,1,5;                                         0000021P     53
126,2,2,1,0,0,0,-5149.999999999995D0,-5149.999999999995D0,       0000023P     54
-5149.999999999995D0,-4849.999999999995D0,-4849.999999999995D0,  0000023P     55
-4849.999999999995D0,1.0D0,0.7071067811865457D0,1.0D0,           0000023P     56
-39.89000000000012D0,-4.850000000031979D0,4.999999999999999D0,   0000023P     57
-39.88999999999999D0,-5.00000000003198D0,4.999999999999998D0,    0000023P     58
-39.89D0,-5.000000000031981D0,4.849999999999999D0,               0000023P     59
-5149.999999999995D0,-4849.999999999995D0,-1.0D0,-0.0D0,-0.0D0,  0000023P     60
0,1,5;                                                           0000023P     61
126,1,1,1,0,1,0,-1.0D0,-1.0D0,-0.0D0,-0.0D0,1.0D0,1.0D0,         0000025P     62
-39.88999999999999D0,-5.000000000031981D0,4.849999999999996D0,   0000025P     63
1.546140993013978D-14,-5.000000000000002D0,4.850000000000001D0,  0000025P     64
-1.0D0,-0.0D0,0.0D0,0.0D0,1.0D0,0,1,5;                           0000025P     65
102,4,19,21,23,25,0,1,5;                                         0000027P     66
142,0,7,17,27,1,0,1,5;                                           0000029P     67
144,7,1,0,29,0,1,5;                                              0000031P     68
406,1,7HTrimSrf;                                                 0000033P     69
128,2,3,2,3,0,0,0,0,0,0.0D0,0.0D0,0.0D0,300.0000000000109D0,     0000035P     70
300.0000000000109D0,300.0000000000109D0,0.0D0,0.0D0,0.0D0,0.0D0, 0000035P     71
5000.0D0,5000.0D0,5000.0D0,5000.0D0,1.0D0,0.7071067811865457D0,  0000035P     72
1.0D0,1.0D0,0.7071067811865457D0,1.0D0,0.9999999999999994D0,     0000035P     73
0.7071067811865452D0,0.9999999999999994D0,1.0D0,                 0000035P     74
0.7071067811865457D0,1.0D0,-40.03999999999997D0,                 0000035P     75
-5.000000000032101D0,4.849999999999994D0,-40.03999999999997D0,   0000035P     76
-5.000000000032101D0,4.999999999999998D0,-39.88999999999997D0,   0000035P     77
-5.000000000031981D0,5.0D0,-40.04000000000129D0,                 0000035P     78
-3.333333333365433D0,4.84999999999999D0,-40.04000000000131D0,    0000035P     79
-3.333333333365432D0,4.999999999999992D0,-39.8900000000013D0,    0000035P     80
-3.333333333365312D0,4.999999999999998D0,-40.04000000000266D0,   0000035P     81
-1.666666666698768D0,4.849999999999997D0,-40.04000000000264D0,   0000035P     82
-1.666666666698768D0,4.999999999999992D0,-39.89000000000268D0,   0000035P     83
-1.666666666698649D0,5.000000000000002D0,-40.04000000000398D0,   0000035P     84
-3.210094828710644D-11,4.849999999999994D0,-40.04000000000398D0, 0000035P     85
-3.210094828710644D-11,4.999999999999998D0,-39.89000000000397D0, 0000035P     86
-3.198068998932757D-11,5.0D0,0.0D0,300.0000000000109D0,0.0D0,    0000035P     87
5000.0D0,0,1,33;                                                 0000035P     88
126,1,1,1,0,1,0,-4849.999999999996D0,-4849.999999999996D0,       0000037P     89
-0.0D0,-0.0D0,1.0D0,1.0D0,300.0000000000109D0,                   0000037P     90
150.0000000000036D0,0.0D0,300.0000000000109D0,5000.0D0,0.0D0,    0000037P     91
-4849.999999999996D0,-0.0D0,0.0D0,0.0D0,1.0D0,0,1,33;            0000037P     92
126,1,1,1,0,1,0,-0.0D0,-0.0D0,1.0D0,1.0D0,1.0D0,1.0D0,           0000039P     93
300.0000000000109D0,5000.0D0,0.0D0,0.0D0,5000.0D0,0.0D0,-0.0D0,  0000039P     94
1.0D0,0.0D0,0.0D0,1.0D0,0,1,33;                                  0000039P     95
126,1,1,1,0,1,0,1.0D0,1.0D0,4851.000000000005D0,                 0000041P     96
4851.000000000005D0,1.0D0,1.0D0,0.0D0,5000.0D0,0.0D0,0.0D0,      0000041P     97
149.9999999999954D0,0.0D0,1.0D0,4851.000000000005D0,0.0D0,0.0D0, 0000041P     98
1.0D0,0,1,33;                                                    0000041P     99
126,1,1,1,0,1,0,4851.000000000005D0,4851.000000000005D0,         0000043P    100
5151.000000000015D0,5151.000000000015D0,1.0D0,1.0D0,0.0D0,       0000043P    101
149.9999999999954D0,0.0D0,300.0000000000109D0,                   0000043P    102
150.0000000000036D0,0.0D0,4851.000000000005D0,                   0000043P    103
5151.000000000015D0,0.0D0,0.0D0,1.0D0,0,1,33;                    0000043P    104
102,4,37,39,41,43,0,1,33;                                        0000045P    105
126,3,3,1,0,1,0,4468.493146214104D0,4468.493146214104D0,         0000047P    106
4468.493146214104D0,4468.493146214104D0,9318.493146214105D0,     0000047P    107
9318.493146214105D0,9318.493146214105D0,9318.493146214105D0,     0000047P    108
1.0D0,1.0D0,1.0D0,1.0D0,-39.89000000000009D0,                    0000047P    109
-4.850000000031976D0,5.0D0,-39.89000000000139D0,                 0000047P    110
-3.233333333365311D0,4.999999999999999D0,-39.89000000000269D0,   0000047P    111
-1.616666666698647D0,4.999999999999997D0,-39.89000000000397D0,   0000047P    112
-3.198068998932757D-11,5.0D0,4468.493146214104D0,                0000047P    113
9318.493146214105D0,0.0D0,0.0D0,1.0D0,0,1,33;                    0000047P    114
126,2,2,1,0,0,0,5000.0D0,5000.0D0,5000.0D0,5001.0D0,5001.0D0,    0000049P    115
5001.0D0,1.0D0,0.7071067811865457D0,1.0D0,-39.89000000000397D0,  0000049P    116
-3.198068998932757D-11,5.0D0,-40.04000000000398D0,               0000049P    117
-3.210094828710644D-11,4.999999999999998D0,-40.04000000000398D0, 0000049P    118
-3.210094828710644D-11,4.849999999999994D0,5000.0D0,5001.0D0,    0000049P    119
-0.0D0,-1.0D0,-0.0D0,0,1,33;                                     0000049P    120
126,3,3,1,0,1,0,-14550.00000000003D0,-14550.00000000003D0,       0000051P    121
-14550.00000000003D0,-14550.00000000003D0,-9700.000000000022D0,  0000051P    122
-9700.000000000022D0,-9700.000000000022D0,-9700.000000000022D0,  0000051P    123
1.0D0,1.0D0,1.0D0,1.0D0,-40.04000000000398D0,                    0000051P    124
-3.210094828710644D-11,4.849999999999994D0,-40.04000000000267D0, 0000051P    125
-1.616666666698767D0,4.850000000000002D0,-40.04000000000138D0,   0000051P    126
-3.233333333365433D0,4.850000000000009D0,-40.0400000000001D0,    0000051P    127
-4.850000000032101D0,4.850000000000021D0,-14550.00000000003D0,   0000051P    128
-9700.000000000022D0,0.0D0,0.0D0,1.0D0,0,1,33;                   0000051P    129
126,2,2,1,0,0,0,9851.000000000004D0,9851.000000000004D0,         0000053P    130
9851.000000000004D0,10151.00000000001D0,10151.00000000001D0,     0000053P    131
10151.00000000001D0,1.0D0,0.707106781186569D0,1.0D0,             0000053P    132
-40.0400000000001D0,-4.850000000032105D0,4.849999999999997D0,    0000053P    133
-40.04000000000009D0,-4.850000000032101D0,5.0D0,                 0000053P    134
-39.89000000000012D0,-4.850000000031979D0,4.999999999999999D0,   0000053P    135
9851.000000000004D0,10151.00000000001D0,-0.0D0,-1.0D0,-0.0D0,0,  0000053P    136
1,33;                                                            0000053P    137
102,4,47,49,51,53,0,1,33;                                        0000055P    138
142,0,35,45,55,1,0,1,33;                                         0000057P    139
144,35,1,0,57,0,1,33;                                            0000059P    140
406,1,7HTrimSrf;                                                 0000061P    141
128,1,3,1,3,0,0,1,0,0,0.0D0,0.0D0,1.0D0,1.0D0,                   0000063P    142
-9318.493146214105D0,-9318.493146214105D0,-9318.493146214105D0,  0000063P    143
-9318.493146214105D0,-4468.493146214104D0,-4468.493146214104D0,  0000063P    144
-4468.493146214104D0,-4468.493146214104D0,1.0D0,1.0D0,1.0D0,     0000063P    145
1.0D0,1.0D0,1.0D0,1.0D0,1.0D0,-3.981325084908957D-12,            0000063P    146
-1.597416249180467D-24,5.0D0,-39.89000000000397D0,               0000063P    147
-3.198068998932757D-11,5.0D0,-2.692180668228122D-12,             0000063P    148
-1.616666666666667D0,5.0D0,-39.89000000000269D0,                 0000063P    149
-1.616666666698647D0,4.999999999999997D0,-1.403036251547289D-12, 0000063P    150
-3.233333333333334D0,4.999999999999999D0,-39.89000000000139D0,   0000063P    151
-3.233333333365311D0,4.999999999999999D0,-1.138918348664549D-13, 0000063P    152
-4.850000000000001D0,5.0D0,-39.89000000000009D0,                 0000063P    153
-4.850000000031976D0,5.0D0,0.0D0,1.0D0,-9318.493146214105D0,     0000063P    154
-4468.493146214104D0,0,1,61;                                     0000063P    155
406,1,7HTrimSrf;                                                 0000065P    156
128,2,2,2,2,0,0,0,0,0,9851.000000000004D0,9851.000000000004D0,   0000067P    157
9851.000000000004D0,10151.00000000001D0,10151.00000000001D0,     0000067P    158
10151.00000000001D0,4849.999999999995D0,4849.999999999995D0,     0000067P    159
4849.999999999995D0,5149.999999999995D0,5149.999999999995D0,     0000067P    160
5149.999999999995D0,1.0D0,0.707106781186569D0,1.0D0,             0000067P    161
0.7071067811865819D0,0.4142135623731326D0,0.7071067811865457D0,  0000067P    162
1.0D0,0.707106781186569D0,1.0D0,-39.89D0,-5.000000000031981D0,   0000067P    163
4.849999999999999D0,-39.89D0,-5.000000000031981D0,               0000067P    164
4.849999999999999D0,-39.89D0,-5.000000000031981D0,               0000067P    165
4.849999999999999D0,-40.03999999999997D0,-5.000000000032084D0,   0000067P    166
4.849999999999992D0,-40.05553300858892D0,-5.053033008621088D0,   0000067P    167
5.015533008588974D0,-39.88999999999999D0,-5.00000000003198D0,    0000067P    168
4.999999999999998D0,-40.0400000000001D0,-4.850000000032105D0,    0000067P    169
4.849999999999997D0,-40.04000000000009D0,-4.850000000032101D0,   0000067P    170
5.0D0,-39.89000000000012D0,-4.850000000031979D0,                 0000067P    171
4.999999999999999D0,9851.000000000004D0,10151.00000000001D0,     0000067P    172
4849.999999999995D0,5149.999999999995D0,0,1,65;                  0000067P    173
406,1,7HTrimSrf;                                                 0000069P    174
128,3,2,3,2,0,0,0,0,0,0.0D0,0.0D0,0.0D0,0.0D0,                   0000071P    175
79850.00000000004D0,79850.00000000004D0,79850.00000000004D0,     0000071P    176
79850.00000000004D0,0.0D0,0.0D0,0.0D0,300.0000000000009D0,       0000071P    177
300.0000000000009D0,300.0000000000009D0,1.0D0,1.0D0,             0000071P    178
0.9999999999999997D0,1.0D0,0.7071067811865457D0,                 0000071P    179
0.7071067811865469D0,0.7071067811865468D0,0.7071067811865457D0,  0000071P    180
1.0D0,1.0D0,0.9999999999999997D0,1.0D0,-39.96D0,-5.0D0,          0000071P    181
4.850000000000001D0,-13.34333333333331D0,-4.999999999999999D0,   0000071P    182
4.850000000000001D0,13.27333333333337D0,-5.000000000000001D0,    0000071P    183
4.849999999999999D0,39.89000000000004D0,-5.0D0,                  0000071P    184
4.850000000000001D0,-39.96D0,-5.0D0,5.0D0,-13.34333333333338D0,  0000071P    185
-5.000000000000001D0,5.000000000000001D0,13.27333333333343D0,    0000071P    186
-5.0D0,5.0D0,39.89000000000004D0,-5.0D0,5.0D0,-39.96D0,          0000071P    187
-4.850000000000001D0,5.0D0,-13.34333333333332D0,                 0000071P    188
-4.850000000000001D0,5.000000000000001D0,13.27333333333338D0,    0000071P    189
-4.85D0,5.000000000000002D0,39.89000000000004D0,                 0000071P    190
-4.850000000000001D0,5.0D0,0.0D0,79850.00000000004D0,0.0D0,      0000071P    191
300.0000000000009D0,0,1,69;                                      0000071P    192
126,1,1,1,0,1,0,39959.99999999999D0,39959.99999999999D0,         0000073P    193
79850.00000000004D0,79850.00000000004D0,1.0D0,1.0D0,39960.0D0,   0000073P    194
0.0D0,0.0D0,79850.00000000004D0,0.0D0,0.0D0,39959.99999999999D0, 0000073P    195
79850.00000000004D0,0.0D0,0.0D0,1.0D0,0,1,69;                    0000073P    196
126,1,1,1,0,1,0,79850.00000000004D0,79850.00000000004D0,         0000075P    197
79851.00000000004D0,79851.00000000004D0,1.0D0,1.0D0,             0000075P    198
79850.00000000004D0,0.0D0,0.0D0,79850.00000000004D0,             0000075P    199
300.0000000000009D0,0.0D0,79850.00000000004D0,                   0000075P    200
79851.00000000004D0,0.0D0,0.0D0,1.0D0,0,1,69;                    0000075P    201
126,1,1,1,0,1,0,79851.00000000004D0,79851.00000000004D0,         0000077P    202
119741.0000000001D0,119741.0000000001D0,1.0D0,1.0D0,             0000077P    203
79850.00000000004D0,300.0000000000009D0,0.0D0,                   0000077P    204
39959.99999999999D0,300.0000000000009D0,0.0D0,                   0000077P    205
79851.00000000004D0,119741.0000000001D0,0.0D0,0.0D0,1.0D0,0,1,   0000077P    206
69;                                                              0000077P    207
126,1,1,1,0,1,0,119741.0000000001D0,119741.0000000001D0,         0000079P    208
120041.0000000001D0,120041.0000000001D0,1.0D0,1.0D0,             0000079P    209
39959.99999999999D0,300.0000000000009D0,0.0D0,39960.0D0,0.0D0,   0000079P    210
0.0D0,119741.0000000001D0,120041.0000000001D0,0.0D0,0.0D0,1.0D0, 0000079P    211
0,1,69;                                                          0000079P    212
102,4,73,75,77,79,0,1,69;                                        0000081P    213
126,1,1,1,0,1,0,0.0D0,0.0D0,1.0D0,1.0D0,1.0D0,1.0D0,             0000083P    214
1.546140993013978D-14,-5.000000000000002D0,4.850000000000001D0,  0000083P    215
39.89000000000001D0,-5.0D0,4.849999999999996D0,0.0D0,1.0D0,      0000083P    216
0.0D0,0.0D0,1.0D0,0,1,69;                                        0000083P    217
126,2,2,1,0,0,0,-0.0D0,-0.0D0,-0.0D0,300.0000000000109D0,        0000085P    218
300.0000000000109D0,300.0000000000109D0,1.0D0,                   0000085P    219
0.7071067811865457D0,1.0D0,39.89000000000002D0,                  0000085P    220
-4.999999999999999D0,4.849999999999999D0,39.89000000000001D0,    0000085P    221
-4.999999999999997D0,5.0D0,39.89000000000001D0,                  0000085P    222
-4.849999999999998D0,5.0D0,-0.0D0,300.0000000000109D0,1.0D0,     0000085P    223
0.0D0,0.0D0,0,1,69;                                              0000085P    224
126,1,1,1,0,1,0,0.0D0,0.0D0,1.0D0,1.0D0,1.0D0,1.0D0,             0000087P    225
39.88999999999999D0,-4.849999999999995D0,5.0D0,                  0000087P    226
-1.138918348664549D-13,-4.850000000000001D0,5.0D0,0.0D0,1.0D0,   0000087P    227
0.0D0,0.0D0,1.0D0,0,1,69;                                        0000087P    228
126,2,2,1,0,0,0,-300.0000000000009D0,-300.0000000000009D0,       0000089P    229
-300.0000000000009D0,-0.0D0,-0.0D0,-0.0D0,1.0D0,                 0000089P    230
0.7071067811865518D0,1.0D0,-8.660699381326623D-14,               0000089P    231
-4.850000000000001D0,5.000000000000002D0,3.032541440052741D-14,  0000089P    232
-5.0D0,4.999999999999999D0,3.637978807091548D-14,-5.0D0,         0000089P    233
4.850000000000001D0,-300.0000000000009D0,-0.0D0,-1.0D0,-0.0D0,   0000089P    234
-0.0D0,0,1,69;                                                   0000089P    235
102,4,83,85,87,89,0,1,69;                                        0000091P    236
142,0,71,81,91,1,0,1,69;                                         0000093P    237
144,71,1,0,93,0,1,69;                                            0000095P    238
406,1,7HTrimSrf;                                                 0000097P    239
128,2,2,2,2,0,0,0,0,0,-150.0000000000035D0,-150.0000000000035D0, 0000099P    240
-150.0000000000035D0,149.9999999999965D0,149.9999999999965D0,    0000099P    241
149.9999999999965D0,-300.0000000000109D0,-300.0000000000109D0,   0000099P    242
-300.0000000000109D0,0.0D0,0.0D0,0.0D0,1.0D0,                    0000099P    243
0.7071067811865819D0,1.0D0,0.707106781186569D0,                  0000099P    244
0.4142135623731394D0,0.7071067811865457D0,1.0D0,                 0000099P    245
0.7071067811865819D0,1.0D0,39.89000000000001D0,                  0000099P    246
-4.849999999999998D0,5.0D0,39.89000000000001D0,                  0000099P    247
-4.849999999999998D0,5.0D0,39.89000000000001D0,                  0000099P    248
-4.849999999999998D0,5.0D0,40.03999999999998D0,                  0000099P    249
-4.850000000000002D0,4.999999999999996D0,40.05553300858897D0,    0000099P    250
-5.015533008588959D0,5.053033008588972D0,39.89000000000001D0,    0000099P    251
-4.999999999999997D0,5.0D0,40.04D0,-4.850000000000004D0,         0000099P    252
4.849999999999999D0,40.04000000000001D0,-4.999999999999985D0,    0000099P    253
4.849999999999995D0,39.89000000000002D0,-4.999999999999999D0,    0000099P    254
4.849999999999999D0,-150.0000000000035D0,149.9999999999965D0,    0000099P    255
-300.0000000000109D0,0.0D0,0,1,97;                               0000099P    256
406,1,7HTrimSrf;                                                 0000101P    257
128,3,2,3,2,0,0,0,0,0,0.0D0,0.0D0,0.0D0,0.0D0,5000.0D0,5000.0D0, 0000103P    258
5000.0D0,5000.0D0,0.0D0,0.0D0,0.0D0,300.0000000000109D0,         0000103P    259
300.0000000000109D0,300.0000000000109D0,1.0D0,1.0D0,             0000103P    260
0.9999999999999994D0,1.0D0,0.7071067811865457D0,                 0000103P    261
0.7071067811865457D0,0.7071067811865452D0,0.7071067811865457D0,  0000103P    262
1.0D0,1.0D0,0.9999999999999994D0,1.0D0,40.04D0,-5.0D0,           0000103P    263
4.849999999999994D0,40.03999999999998D0,-3.333333333333332D0,    0000103P    264
4.84999999999999D0,40.04000000000002D0,-1.666666666666668D0,     0000103P    265
4.849999999999997D0,40.04D0,0.0D0,4.849999999999994D0,           0000103P    266
40.04000000000001D0,-5.0D0,4.999999999999998D0,40.04D0,          0000103P    267
-3.333333333333331D0,4.999999999999992D0,40.04000000000001D0,    0000103P    268
-1.666666666666667D0,4.999999999999992D0,40.04000000000001D0,    0000103P    269
0.0D0,4.999999999999998D0,39.88999999999999D0,-5.0D0,5.0D0,      0000103P    270
39.88999999999999D0,-3.333333333333332D0,4.999999999999998D0,    0000103P    271
39.89000000000004D0,-1.666666666666669D0,5.000000000000002D0,    0000103P    272
39.88999999999999D0,0.0D0,5.0D0,0.0D0,5000.0D0,0.0D0,            0000103P    273
300.0000000000109D0,0,1,101;                                     0000103P    274
126,1,1,1,0,1,0,-300.0000000000109D0,-300.0000000000109D0,       0000105P    275
-8.992806499464095D-13,-8.992806499464095D-13,1.0D0,1.0D0,       0000105P    276
150.0000000000036D0,300.0000000000109D0,0.0D0,                   0000105P    277
149.9999999999954D0,8.992806499464095D-13,0.0D0,                 0000105P    278
-300.0000000000109D0,-8.992806499464095D-13,0.0D0,0.0D0,1.0D0,0, 0000105P    279
1,101;                                                           0000105P    280
126,1,1,1,0,1,0,-8.992806499464095D-13,-8.992806499464095D-13,   0000107P    281
4850.000000000005D0,4850.000000000005D0,1.0D0,1.0D0,             0000107P    282
149.9999999999954D0,8.992806499464095D-13,0.0D0,5000.0D0,0.0D0,  0000107P    283
0.0D0,-8.992806499464095D-13,4850.000000000005D0,0.0D0,0.0D0,    0000107P    284
1.0D0,0,1,101;                                                   0000107P    285
126,1,1,1,0,1,0,4850.000000000005D0,4850.000000000005D0,         0000109P    286
4851.000000000005D0,4851.000000000005D0,1.0D0,1.0D0,5000.0D0,    0000109P    287
0.0D0,0.0D0,5000.0D0,300.0000000000109D0,0.0D0,                  0000109P    288
4850.000000000005D0,4851.000000000005D0,0.0D0,0.0D0,1.0D0,0,1,   0000109P    289
101;                                                             0000109P    290
126,1,1,1,0,1,0,4851.000000000005D0,4851.000000000005D0,         0000111P    291
9701.0D0,9701.0D0,1.0D0,1.0D0,5000.0D0,300.0000000000109D0,      0000111P    292
0.0D0,150.0000000000036D0,300.0000000000109D0,0.0D0,             0000111P    293
4851.000000000005D0,9701.0D0,0.0D0,0.0D0,1.0D0,0,1,101;          0000111P    294
102,4,105,107,109,111,0,1,101;                                   0000113P    295
126,2,2,1,0,0,0,-300.0000000000109D0,-300.0000000000109D0,       0000115P    296
-300.0000000000109D0,0.0D0,0.0D0,0.0D0,1.0D0,                    0000115P    297
0.707106781186569D0,1.0D0,39.88999999999999D0,                   0000115P    298
-4.849999999999995D0,5.0D0,40.03999999999999D0,                  0000115P    299
-4.850000000000001D0,4.999999999999999D0,40.04D0,                0000115P    300
-4.850000000000006D0,4.849999999999994D0,-300.0000000000109D0,   0000115P    301
0.0D0,0.0D0,1.0D0,0.0D0,0,1,101;                                 0000115P    302
126,3,3,1,0,1,0,-4949.850000000005D0,-4949.850000000005D0,       0000117P    303
-4949.850000000005D0,-4949.850000000005D0,-99.84999999999999D0,  0000117P    304
-99.84999999999999D0,-99.84999999999999D0,-99.84999999999999D0,  0000117P    305
1.0D0,1.0D0,1.0D0,1.0D0,40.04D0,-4.850000000000001D0,            0000117P    306
4.850000000000021D0,40.03999999999998D0,-3.233333333333332D0,    0000117P    307
4.850000000000009D0,40.03999999999998D0,-1.616666666666666D0,    0000117P    308
4.850000000000002D0,40.04D0,0.0D0,4.849999999999994D0,           0000117P    309
-4949.850000000005D0,-99.84999999999999D0,0.0D0,0.0D0,1.0D0,0,1, 0000117P    310
101;                                                             0000117P    311
126,2,2,1,0,0,0,4850.000000000005D0,4850.000000000005D0,         0000119P    312
4850.000000000005D0,4851.000000000005D0,4851.000000000005D0,     0000119P    313
4851.000000000005D0,1.0D0,0.7071067811865457D0,1.0D0,40.04D0,    0000119P    314
0.0D0,4.849999999999994D0,40.04000000000001D0,0.0D0,             0000119P    315
4.999999999999998D0,39.88999999999999D0,0.0D0,5.0D0,             0000119P    316
4850.000000000005D0,4851.000000000005D0,-0.0D0,-1.0D0,-0.0D0,0,  0000119P    317
1,101;                                                           0000119P    318
126,3,3,1,0,1,0,-9318.493146214105D0,-9318.493146214105D0,       0000121P    319
-9318.493146214105D0,-9318.493146214105D0,-4468.493146214104D0,  0000121P    320
-4468.493146214104D0,-4468.493146214104D0,-4468.493146214104D0,  0000121P    321
1.0D0,1.0D0,1.0D0,1.0D0,39.88999999999999D0,0.0D0,5.0D0,39.89D0, 0000121P    322
-1.616666666666666D0,4.999999999999997D0,39.89D0,                0000121P    323
-3.23333333333333D0,4.999999999999999D0,39.88999999999999D0,     0000121P    324
-4.849999999999995D0,5.0D0,-9318.493146214105D0,                 0000121P    325
-4468.493146214104D0,0.0D0,0.0D0,1.0D0,0,1,101;                  0000121P    326
102,4,115,117,119,121,0,1,101;                                   0000123P    327
142,0,103,113,123,1,0,1,101;                                     0000125P    328
144,103,1,0,125,0,1,101;                                         0000127P    329
406,1,7HTrimSrf;                                                 0000129P    330
128,1,3,1,3,0,0,1,0,0,0.0D0,0.0D0,1.0D0,1.0D0,                   0000131P    331
-9318.493146214105D0,-9318.493146214105D0,-9318.493146214105D0,  0000131P    332
-9318.493146214105D0,-4468.493146214104D0,-4468.493146214104D0,  0000131P    333
-4468.493146214104D0,-4468.493146214104D0,1.0D0,1.0D0,1.0D0,     0000131P    334
1.0D0,1.0D0,1.0D0,1.0D0,1.0D0,39.88999999999999D0,0.0D0,5.0D0,   0000131P    335
-3.981325084908957D-12,-1.597416249180467D-24,5.0D0,39.89D0,     0000131P    336
-1.616666666666666D0,4.999999999999997D0,-2.692180668228122D-12, 0000131P    337
-1.616666666666667D0,5.0D0,39.89D0,-3.23333333333333D0,          0000131P    338
4.999999999999999D0,-1.403036251547289D-12,-3.233333333333334D0, 0000131P    339
4.999999999999999D0,39.88999999999999D0,-4.849999999999995D0,    0000131P    340
5.0D0,-1.138918348664549D-13,-4.850000000000001D0,5.0D0,0.0D0,   0000131P    341
1.0D0,-9318.493146214105D0,-4468.493146214104D0,0,1,129;         0000131P    342
S0000001G0000011D0000132P0000342                                        T      1
