                                                                        S      1
1H,,1H;,,                                                               G      1
45HC:\Users\maaf\Desktop\ushared\patch_s2_xz.igs,                       G      2
26HRhinoceros ( Apr 17 2023 ),31HTrout Lake IGES 012 Apr 17 2023,       G      3
32,38,6,308,15,                                                         G      4
,                                                                       G      5
1.0D0,6,1HM,1,0.000254D0,13H230620.075538,                              G      6
0.001D0,                                                                G      7
1.24695D0,                                                              G      8
4Hmaaf,                                                                 G      9
3Hdtu,                                                                  G     10
10,0,13H230620.075538;                                                  G     11
     314       1       0       0       0       0       0       000000200D      1
     314       0       1       1       0       0       0   COLOR       0D      2
     406       2       0       0       1       0       0       000000300D      3
     406       0      -1       1       3       0       0LEVELDEF       0D      4
     128       3       0       0       1       0       0       000010000D      5
     128       0      -1       6       8       0       0 TrimSrf       0D      6
     126       9       0       0       1       0       0       000010500D      7
     126       0      -1       3       1       0       0 TrimBnd       1D      8
     126      12       0       0       1       0       0       000010500D      9
     126       0      -1       3       1       0       0 TrimBnd       2D     10
     126      15       0       0       1       0       0       000010500D     11
     126       0      -1       5       1       0       0 TrimBnd       3D     12
     126      20       0       0       1       0       0       000010500D     13
     126       0      -1       3       1       0       0 TrimBnd       4D     14
     126      23       0       0       1       0       0       000010500D     15
     126       0      -1       3       1       0       0 TrimBnd       5D     16
     126      26       0       0       1       0       0       000010500D     17
     126       0      -1       4       1       0       0 TrimBnd       6D     18
     102      30       0       0       1       0       0       000010500D     19
     102       0      -1       1       0       0       02D CURVE       0D     20
     126      31       0       0       1       0       0       000010000D     21
     126       0      -1       3       1       0       0 TrimBnd       1D     22
     126      34       0       0       1       0       0       000010000D     23
     126       0      -1       3       1       0       0 TrimBnd       2D     24
     126      37       0       0       1       0       0       000010000D     25
     126       0      -1       4       1       0       0 TrimBnd       3D     26
     126      41       0       0       1       0       0       000010000D     27
     126       0      -1       3       1       0       0 TrimBnd       4D     28
     126      44       0       0       1       0       0       000010000D     29
     126       0      -1       3       1       0       0 TrimBnd       5D     30
     126      47       0       0       1       0       0       000010000D     31
     126       0      -1       4       1       0       0 TrimBnd       6D     32
     102      51       0       0       1       0       0       000010000D     33
     102       0      -1       1       0       0       03D CURVE       0D     34
     142      52       0       0       1       0       0       000010000D     35
     142       0      -1       1       0       0       0 TrimBnd       1D     36
     144      53       0       0       1       0       0       000000000D     37
     144       0      -1       1       0       0       0 TrimSrf       0D     38
314,0.0,0.0,0.0,20HRGB(   0,   0,   0 );                         0000001P      1
406,2,1,7HDefault;                                               0000003P      2
128,1,1,1,1,0,0,1,0,0,-2.469449999999999D0,-2.469449999999999D0, 0000005P      3
0.02445D0,0.02445D0,-0.3100000000000009D0,-0.3100000000000009D0, 0000005P      4
0.01D0,0.01D0,1.0D0,1.0D0,1.0D0,1.0D0,-1.24695D0,-0.12D0,0.31D0, 0000005P      5
1.24695D0,-0.12D0,0.31D0,-1.24695D0,-0.12D0,                     0000005P      6
-0.01000000000000088D0,1.24695D0,-0.12D0,-0.01000000000000088D0, 0000005P      7
-2.469449999999999D0,0.02445D0,-0.3100000000000009D0,0.01D0;     0000005P      8
126,1,1,1,0,1,0,0.0D0,0.0D0,1.2225D0,1.2225D0,1.0D0,1.0D0,0.0D0, 0000007P      9
0.0D0,0.0D0,-1.2225D0,-6.735017800513928D-16,0.0D0,0.0D0,        0000007P     10
1.2225D0,0.0D0,0.0D0,1.0D0;                                      0000007P     11
126,1,1,1,0,1,0,0.0D0,0.0D0,1.2225D0,1.2225D0,1.0D0,1.0D0,       0000009P     12
-1.2225D0,-6.735017800513928D-16,0.0D0,-2.444999999999999D0,     0000009P     13
-4.327483170617247D-16,0.0D0,0.0D0,1.2225D0,0.0D0,0.0D0,1.0D0;   0000009P     14
126,1,1,1,0,1,0,0.0D0,0.0D0,0.3000000000000004D0,                0000011P     15
0.3000000000000004D0,1.0D0,1.0D0,-2.444999999999999D0,           0000011P     16
-4.327483170617247D-16,0.0D0,-2.444999999999999D0,               0000011P     17
-0.3000000000000009D0,0.0D0,0.0D0,0.3000000000000004D0,0.0D0,    0000011P     18
0.0D0,1.0D0;                                                     0000011P     19
126,1,1,1,0,1,0,0.0D0,0.0D0,1.2225D0,1.2225D0,1.0D0,1.0D0,       0000013P     20
-2.444999999999999D0,-0.3000000000000009D0,0.0D0,-1.2225D0,      0000013P     21
-0.3000000000000009D0,0.0D0,0.0D0,1.2225D0,0.0D0,0.0D0,1.0D0;    0000013P     22
126,1,1,1,0,1,0,0.0D0,0.0D0,1.2225D0,1.2225D0,1.0D0,1.0D0,       0000015P     23
-1.2225D0,-0.3000000000000009D0,0.0D0,0.0D0,                     0000015P     24
-0.3000000000000004D0,0.0D0,0.0D0,1.2225D0,0.0D0,0.0D0,1.0D0;    0000015P     25
126,1,1,1,0,1,0,0.0D0,0.0D0,0.3000000000000004D0,                0000017P     26
0.3000000000000004D0,1.0D0,1.0D0,0.0D0,-0.3000000000000004D0,    0000017P     27
0.0D0,0.0D0,0.0D0,0.0D0,0.0D0,0.3000000000000004D0,0.0D0,0.0D0,  0000017P     28
1.0D0;                                                           0000017P     29
102,6,7,9,11,13,15,17;                                           0000019P     30
126,1,1,1,0,1,0,0.0D0,0.0D0,1.2225D0,1.2225D0,1.0D0,1.0D0,       0000021P     31
1.2225D0,-0.12D0,-8.768375269117874D-16,-1.110223024625157D-16,  0000021P     32
-0.12D0,-2.033357468603945D-16,0.0D0,1.2225D0,0.0D0,0.0D0,1.0D0; 0000021P     33
126,1,1,1,0,1,0,0.0D0,0.0D0,1.2225D0,1.2225D0,1.0D0,1.0D0,       0000023P     34
-1.110223024625157D-16,-0.12D0,-2.033357468603945D-16,-1.2225D0, 0000023P     35
-0.12D0,-4.440892098500626D-16,0.0D0,1.2225D0,0.0D0,0.0D0,1.0D0; 0000023P     36
126,1,1,1,0,1,0,0.0D0,0.0D0,0.3000000000000004D0,                0000025P     37
0.3000000000000004D0,1.0D0,1.0D0,-1.2225D0,-0.12D0,              0000025P     38
-4.440892098500626D-16,-1.2225D0,-0.12D0,0.3D0,0.0D0,            0000025P     39
0.3000000000000004D0,1.0D0,0.0D0,0.0D0;                          0000025P     40
126,1,1,1,0,1,0,0.0D0,0.0D0,1.2225D0,1.2225D0,1.0D0,1.0D0,       0000027P     41
-1.2225D0,-0.12D0,0.3D0,-5.792434944880706D-17,-0.12D0,0.3D0,    0000027P     42
0.0D0,1.2225D0,0.0D0,0.0D0,1.0D0;                                0000027P     43
126,1,1,1,0,1,0,0.0D0,0.0D0,1.2225D0,1.2225D0,1.0D0,1.0D0,       0000029P     44
-5.792434944880706D-17,-0.12D0,0.3D0,1.2225D0,-0.12D0,           0000029P     45
0.2999999999999995D0,0.0D0,1.2225D0,0.0D0,0.0D0,1.0D0;           0000029P     46
126,1,1,1,0,1,0,0.0D0,0.0D0,0.3000000000000004D0,                0000031P     47
0.3000000000000004D0,1.0D0,1.0D0,1.2225D0,-0.12D0,               0000031P     48
0.2999999999999995D0,1.2225D0,-0.12D0,-8.768375269117874D-16,    0000031P     49
0.0D0,0.3000000000000004D0,1.0D0,0.0D0,0.0D0;                    0000031P     50
102,6,21,23,25,27,29,31;                                         0000033P     51
142,0,5,19,33,1;                                                 0000035P     52
144,5,1,0,35;                                                    0000037P     53
S0000001G0000011D0000038P0000053                                        T      1
