                                                                        S      1
1H,,1H;,,                                                               G      1
47H\\10.49.32.64\rhino_jobs\fbarge\patch_s0_yz.igs,                     G      2
26HRhinoceros ( Apr 17 2023 ),31HTrout Lake IGES 012 Apr 17 2023,       G      3
32,38,6,308,15,                                                         G      4
,                                                                       G      5
1.0D0,6,1HM,1,0.000254D0,13H230519.125459,                              G      6
0.001D0,                                                                G      7
1.222500000000001D0,                                                    G      8
4Hmaaf,                                                                 G      9
3Hdtu,                                                                  G     10
10,0,13H230519.125459;                                                  G     11
     314       1       0       0       0       0       0       000000200D      1
     314       0       1       1       0       0       0   COLOR       0D      2
     406       2       0       0       1       0       0       000000300D      3
     406       0      -1       1       3       0       0LEVELDEF       0D      4
     128       3       0       0       1       0       0       000010000D      5
     128       0      -1      10       8       0       0 TrimSrf       0D      6
     126      13       0       0       1       0       0       000010500D      7
     126       0      -1       3       1       0       0 TrimBnd       1D      8
     126      16       0       0       1       0       0       000010500D      9
     126       0      -1       4       1       0       0 TrimBnd       2D     10
     126      20       0       0       1       0       0       000010500D     11
     126       0      -1       5       1       0       0 TrimBnd       3D     12
     126      25       0       0       1       0       0       000010500D     13
     126       0      -1       4       1       0       0 TrimBnd       4D     14
     102      29       0       0       1       0       0       000010500D     15
     102       0      -1       1       0       0       02D CURVE       0D     16
     126      30       0       0       1       0       0       000010000D     17
     126       0      -1       3       1       0       0 TrimBnd       1D     18
     126      33       0       0       1       0       0       000010000D     19
     126       0      -1       4       1       0       0 TrimBnd       2D     20
     126      37       0       0       1       0       0       000010000D     21
     126       0      -1       5       1       0       0 TrimBnd       3D     22
     126      42       0       0       1       0       0       000010000D     23
     126       0      -1       4       1       0       0 TrimBnd       4D     24
     102      46       0       0       1       0       0       000010000D     25
     102       0      -1       1       0       0       03D CURVE       0D     26
     142      47       0       0       1       0       0       000010000D     27
     142       0      -1       1       0       0       0 TrimBnd       1D     28
     144      48       0       0       1       0       0       000000000D     29
     144       0      -1       1       0       0       0 TrimSrf       0D     30
314,0.0,0.0,0.0,20HRGB(   0,   0,   0 );                         0000001P      1
406,2,1,7HDefault;                                               0000003P      2
128,1,1,1,1,0,0,1,0,0,-0.07999999999999882D0,                    0000005P      3
-0.07999999999999882D0,0.01D0,0.01D0,-0.3100000000000001D0,      0000005P      4
-0.3100000000000001D0,0.3100000000000001D0,0.3100000000000001D0, 0000005P      5
1.0D0,1.0D0,1.0D0,1.0D0,1.2225D0,0.01000000000000012D0,          0000005P      6
0.3100000000000001D0,1.222500000000001D0,-0.0799999999999987D0,  0000005P      7
0.3100000000000001D0,1.2225D0,0.01000000000000001D0,             0000005P      8
-0.3100000000000001D0,1.222500000000001D0,                       0000005P      9
-0.07999999999999881D0,-0.3100000000000001D0,                    0000005P     10
-0.07999999999999882D0,0.01D0,-0.3100000000000001D0,             0000005P     11
0.3100000000000001D0;                                            0000005P     12
126,1,1,1,0,1,0,-0.15D0,-0.15D0,-0.0D0,-0.0D0,1.0D0,1.0D0,       0000007P     13
-0.06999999999999876D0,-0.15D0,0.0D0,-0.06999999999999873D0,     0000007P     14
-0.3D0,0.0D0,-0.15D0,-0.0D0,0.0D0,0.0D0,1.0D0;                   0000007P     15
126,1,1,1,0,1,0,-0.02000000000000002D0,-0.02000000000000002D0,   0000009P     16
-0.0D0,-0.0D0,1.0D0,1.0D0,-0.06999999999999873D0,-0.3D0,0.0D0,   0000009P     17
-0.0499999999999987D0,-0.3D0,0.0D0,-0.02000000000000002D0,       0000009P     18
-0.0D0,0.0D0,0.0D0,1.0D0;                                        0000009P     19
126,1,1,1,0,1,0,-0.3041381265149107D0,-0.3041381265149107D0,     0000011P     20
-0.1520690632574554D0,-0.1520690632574554D0,1.0D0,1.0D0,         0000011P     21
-0.0499999999999987D0,-0.3D0,0.0D0,-0.02499999999999936D0,       0000011P     22
-0.15D0,0.0D0,-0.3041381265149107D0,-0.1520690632574554D0,0.0D0, 0000011P     23
0.0D0,1.0D0;                                                     0000011P     24
126,1,1,1,0,1,0,-0.04499999999999937D0,-0.04499999999999937D0,   0000013P     25
-0.0D0,-0.0D0,1.0D0,1.0D0,-0.02499999999999936D0,-0.15D0,0.0D0,  0000013P     26
-0.06999999999999876D0,-0.15D0,0.0D0,-0.04499999999999937D0,     0000013P     27
-0.0D0,0.0D0,0.0D0,1.0D0;                                        0000013P     28
102,4,7,9,11,13;                                                 0000015P     29
126,1,1,1,0,1,0,-0.15D0,-0.15D0,-0.0D0,-0.0D0,1.0D0,1.0D0,       0000017P     30
1.2225D0,4.336808689942017D-19,0.15D0,1.2225D0,0.0D0,0.3D0,      0000017P     31
-0.15D0,-0.0D0,1.0D0,0.0D0,0.0D0;                                0000017P     32
126,1,1,1,0,1,0,-0.12D0,-0.12D0,-0.09999999999999998D0,          0000019P     33
-0.09999999999999998D0,1.0D0,1.0D0,1.2225D0,0.0D0,0.3D0,         0000019P     34
1.2225D0,-0.02000000000000002D0,0.3D0,-0.12D0,                   0000019P     35
-0.09999999999999998D0,0.0D0,0.0D0,1.0D0;                        0000019P     36
126,1,1,1,0,1,0,-0.3041381265149107D0,-0.3041381265149107D0,     0000021P     37
-0.1520690632574592D0,-0.1520690632574592D0,1.0D0,1.0D0,         0000021P     38
1.2225D0,-0.02000000000000002D0,0.3D0,1.2225D0,                  0000021P     39
-0.04499999999999937D0,0.15D0,-0.3041381265149107D0,             0000021P     40
-0.1520690632574592D0,1.0D0,0.0D0,0.0D0;                         0000021P     41
126,1,1,1,0,1,0,-0.04499999999999937D0,-0.04499999999999937D0,   0000023P     42
-0.0D0,-0.0D0,1.0D0,1.0D0,1.2225D0,-0.04499999999999937D0,       0000023P     43
0.15D0,1.2225D0,4.336808689942017D-19,0.15D0,                    0000023P     44
-0.04499999999999937D0,-0.0D0,0.0D0,0.0D0,1.0D0;                 0000023P     45
102,4,17,19,21,23;                                               0000025P     46
142,0,5,15,25,1;                                                 0000027P     47
144,5,1,0,27;                                                    0000029P     48
S0000001G0000011D0000030P0000048                                        T      1
