                                                                        S      1
1H,,1H;,,                                                               G      1
47H\\10.49.32.64\rhino_jobs\fbarge\patch_s3_xz.igs,                     G      2
26HRhinoceros ( Apr 17 2023 ),31HTrout Lake IGES 012 Apr 17 2023,       G      3
32,38,6,308,15,                                                         G      4
,                                                                       G      5
1.0D0,6,1HM,1,0.000254D0,13H230519.125613,                              G      6
0.001D0,                                                                G      7
1.2225D0,                                                               G      8
4Hmaaf,                                                                 G      9
3Hdtu,                                                                  G     10
10,0,13H230519.125613;                                                  G     11
     314       1       0       0       0       0       0       000000200D      1
     314       0       1       1       0       0       0   COLOR       0D      2
     406       2       0       0       1       0       0       000000300D      3
     406       0      -1       1       3       0       0LEVELDEF       0D      4
     128       3       0       0       1       0       0       000010000D      5
     128       0      -1       4       8       0       0 TrimSrf       0D      6
     126       7       0       0       1       0       0       000010500D      7
     126       0      -1       4       1       0       0 TrimBnd       1D      8
     126      11       0       0       1       0       0       000010500D      9
     126       0      -1       3       1       0       0 TrimBnd       2D     10
     126      14       0       0       1       0       0       000010500D     11
     126       0      -1       3       1       0       0 TrimBnd       3D     12
     126      17       0       0       1       0       0       000010500D     13
     126       0      -1       4       1       0       0 TrimBnd       4D     14
     102      21       0       0       1       0       0       000010500D     15
     102       0      -1       1       0       0       02D CURVE       0D     16
     126      22       0       0       1       0       0       000010000D     17
     126       0      -1       4       1       0       0 TrimBnd       1D     18
     126      26       0       0       1       0       0       000010000D     19
     126       0      -1       3       1       0       0 TrimBnd       2D     20
     126      29       0       0       1       0       0       000010000D     21
     126       0      -1       3       1       0       0 TrimBnd       3D     22
     126      32       0       0       1       0       0       000010000D     23
     126       0      -1       4       1       0       0 TrimBnd       4D     24
     102      36       0       0       1       0       0       000010000D     25
     102       0      -1       1       0       0       03D CURVE       0D     26
     142      37       0       0       1       0       0       000010000D     27
     142       0      -1       1       0       0       0 TrimBnd       1D     28
     144      38       0       0       1       0       0       000000000D     29
     144       0      -1       1       0       0       0 TrimSrf       0D     30
314,0.0,0.0,0.0,20HRGB(   0,   0,   0 );                         0000001P      1
406,2,1,7HDefault;                                               0000003P      2
128,1,1,1,1,0,0,1,0,0,0.0D0,0.0D0,0.6D0,0.6D0,0.0D0,0.0D0,       0000005P      3
2.445D0,2.445D0,1.0D0,1.0D0,1.0D0,1.0D0,-1.2225D0,-0.12D0,0.3D0, 0000005P      4
-1.2225D0,-0.12D0,-0.3D0,1.2225D0,-0.12D0,0.3D0,1.2225D0,        0000005P      5
-0.12D0,-0.3D0,0.0D0,0.6D0,0.0D0,2.445D0;                        0000005P      6
126,1,1,1,0,1,0,0.0D0,0.0D0,2.254999999999999D0,                 0000007P      7
2.254999999999999D0,1.0D0,1.0D0,0.3000000000000004D0,0.0D0,      0000007P      8
0.0D0,0.3D0,2.254999999999999D0,0.0D0,0.0D0,2.254999999999999D0, 0000007P      9
0.0D0,0.0D0,1.0D0;                                               0000007P     10
126,1,1,1,0,1,0,-0.3D0,-0.3D0,-0.0D0,-0.0D0,1.0D0,1.0D0,0.3D0,   0000009P     11
2.254999999999999D0,0.0D0,0.0D0,2.254999999999999D0,0.0D0,       0000009P     12
-0.3D0,-0.0D0,0.0D0,0.0D0,1.0D0;                                 0000009P     13
126,1,1,1,0,1,0,-2.254999999999999D0,-2.254999999999999D0,       0000011P     14
-0.0D0,-0.0D0,1.0D0,1.0D0,0.0D0,2.254999999999999D0,0.0D0,0.0D0, 0000011P     15
0.0D0,0.0D0,-2.254999999999999D0,-0.0D0,0.0D0,0.0D0,1.0D0;       0000011P     16
126,1,1,1,0,1,0,-6.09D0,-6.09D0,-5.789999999999999D0,            0000013P     17
-5.789999999999999D0,1.0D0,1.0D0,0.0D0,0.0D0,0.0D0,              0000013P     18
0.3000000000000004D0,0.0D0,0.0D0,-6.09D0,-5.789999999999999D0,   0000013P     19
0.0D0,0.0D0,1.0D0;                                               0000013P     20
102,4,7,9,11,13;                                                 0000015P     21
126,1,1,1,0,1,0,0.0D0,0.0D0,2.254999999999999D0,                 0000017P     22
2.254999999999999D0,1.0D0,1.0D0,-1.2225D0,-0.12D0,               0000017P     23
-4.440892098500626D-16,1.0325D0,-0.12D0,0.0D0,0.0D0,             0000017P     24
2.254999999999999D0,0.0D0,0.0D0,1.0D0;                           0000017P     25
126,1,1,1,0,1,0,-0.3D0,-0.3D0,-0.0D0,-0.0D0,1.0D0,1.0D0,         0000019P     26
1.0325D0,-0.12D0,0.0D0,1.0325D0,-0.12D0,0.3D0,-0.3D0,-0.0D0,     0000019P     27
1.0D0,0.0D0,0.0D0;                                               0000019P     28
126,1,1,1,0,1,0,-2.254999999999999D0,-2.254999999999999D0,       0000021P     29
-0.0D0,-0.0D0,1.0D0,1.0D0,1.0325D0,-0.12D0,0.3D0,-1.2225D0,      0000021P     30
-0.12D0,0.3D0,-2.254999999999999D0,-0.0D0,0.0D0,0.0D0,1.0D0;     0000021P     31
126,1,1,1,0,1,0,-6.09D0,-6.09D0,-5.789999999999999D0,            0000023P     32
-5.789999999999999D0,1.0D0,1.0D0,-1.2225D0,-0.12D0,0.3D0,        0000023P     33
-1.2225D0,-0.12D0,-4.440892098500626D-16,-6.09D0,                0000023P     34
-5.789999999999999D0,1.0D0,0.0D0,0.0D0;                          0000023P     35
102,4,17,19,21,23;                                               0000025P     36
142,0,5,15,25,1;                                                 0000027P     37
144,5,1,0,27;                                                    0000029P     38
S0000001G0000011D0000030P0000038                                        T      1
