                                                                        S      1
1H,,1H;,,                                                               G      1
47H\\10.49.32.64\rhino_jobs\fbarge\patch_s2_xz.igs,                     G      2
26HRhinoceros ( Apr 17 2023 ),31HTrout Lake IGES 012 Apr 17 2023,       G      3
32,38,6,308,15,                                                         G      4
,                                                                       G      5
1.0D0,6,1HM,1,0.000254D0,13H230519.125540,                              G      6
0.001D0,                                                                G      7
1.364195358706434D0,                                                    G      8
4Hmaaf,                                                                 G      9
3Hdtu,                                                                  G     10
10,0,13H230519.125540;                                                  G     11
     314       1       0       0       0       0       0       000000200D      1
     314       0       1       1       0       0       0   COLOR       0D      2
     406       2       0       0       1       0       0       000000300D      3
     406       0      -1       1       3       0       0LEVELDEF       0D      4
     128       3       0       0       1       0       0       000010000D      5
     128       0      -1      10       8       0       0 TrimSrf       0D      6
     126      13       0       0       1       0       0       000010500D      7
     126       0      -1       5       1       0       0 TrimBnd       1D      8
     126      18       0       0       1       0       0       000010500D      9
     126       0      -1       4       1       0       0 TrimBnd       2D     10
     126      22       0       0       1       0       0       000010500D     11
     126       0      -1       5       1       0       0 TrimBnd       3D     12
     102      27       0       0       1       0       0       000010500D     13
     102       0      -1       1       0       0       02D CURVE       0D     14
     126      28       0       0       1       0       0       000010000D     15
     126       0      -1       5       1       0       0 TrimBnd       1D     16
     126      33       0       0       1       0       0       000010000D     17
     126       0      -1       3       1       0       0 TrimBnd       2D     18
     126      36       0       0       1       0       0       000010000D     19
     126       0      -1       5       1       0       0 TrimBnd       3D     20
     102      41       0       0       1       0       0       000010000D     21
     102       0      -1       1       0       0       03D CURVE       0D     22
     142      42       0       0       1       0       0       000010000D     23
     142       0      -1       1       0       0       0 TrimBnd       1D     24
     144      43       0       0       1       0       0       000000000D     25
     144       0      -1       1       0       0       0 TrimSrf       0D     26
     128      44       0       0       1       0       0       000010000D     27
     128       0      -1       9       8       0       0 TrimSrf       0D     28
     126      53       0       0       1       0       0       000010500D     29
     126       0      -1       4       1       0       0 TrimBnd       1D     30
     126      57       0       0       1       0       0       000010500D     31
     126       0      -1       4       1       0       0 TrimBnd       2D     32
     126      61       0       0       1       0       0       000010500D     33
     126       0      -1       4       1       0       0 TrimBnd       3D     34
     102      65       0       0       1       0       0       000010500D     35
     102       0      -1       1       0       0       02D CURVE       0D     36
     126      66       0       0       1       0       0       000010000D     37
     126       0      -1       5       1       0       0 TrimBnd       1D     38
     126      71       0       0       1       0       0       000010000D     39
     126       0      -1       4       1       0       0 TrimBnd       2D     40
     126      75       0       0       1       0       0       000010000D     41
     126       0      -1       5       1       0       0 TrimBnd       3D     42
     102      80       0       0       1       0       0       000010000D     43
     102       0      -1       1       0       0       03D CURVE       0D     44
     142      81       0       0       1       0       0       000010000D     45
     142       0      -1       1       0       0       0 TrimBnd       1D     46
     144      82       0       0       1       0       0       000000000D     47
     144       0      -1       1       0       0       0 TrimSrf       0D     48
314,0.0,0.0,0.0,20HRGB(   0,   0,   0 );                         0000001P      1
406,2,1,7HDefault;                                               0000003P      2
128,1,1,1,1,0,0,1,0,0,-0.2064688270438857D0,                     0000005P      3
-0.2064688270438857D0,0.01D0,0.01D0,-0.3099999999999924D0,       0000005P      4
-0.3099999999999924D0,0.3100000000000075D0,0.3100000000000075D0, 0000005P      5
1.0D0,1.0D0,1.0D0,1.0D0,1.022829254627373D0,                     0000005P      6
-0.1225449329927965D0,-0.3099999999999999D0,1.232170745372627D0, 0000005P      7
-0.06745506700720362D0,-0.3100000000000001D0,                    0000005P      8
1.022829254627373D0,-0.1225449329927964D0,0.3100000000000001D0,  0000005P      9
1.232170745372627D0,-0.06745506700720354D0,0.3099999999999999D0, 0000005P     10
-0.2064688270438857D0,0.01D0,-0.3099999999999924D0,              0000005P     11
0.3100000000000075D0;                                            0000005P     12
126,1,1,1,0,1,0,0.0D0,0.0D0,0.3586084215408288D0,                0000007P     13
0.3586084215408288D0,1.0D0,1.0D0,-2.574329638349582D-15,         0000007P     14
7.549516567451064D-15,0.0D0,-0.1964688270438857D0,               0000007P     15
0.3000000000000075D0,0.0D0,0.0D0,0.3586084215408288D0,0.0D0,     0000007P     16
0.0D0,1.0D0;                                                     0000007P     17
126,1,1,1,0,1,0,0.0D0,0.0D0,0.3D0,0.3D0,1.0D0,1.0D0,             0000009P     18
-0.1964688270438857D0,0.3000000000000075D0,0.0D0,                0000009P     19
-0.1964688270438856D0,7.549516567451064D-15,0.0D0,0.0D0,0.3D0,   0000009P     20
0.0D0,0.0D0,1.0D0;                                               0000009P     21
126,1,1,1,0,1,0,-0.1964688270438856D0,-0.1964688270438856D0,     0000011P     22
-5.148659276699163D-15,-5.148659276699163D-15,1.0D0,1.0D0,       0000011P     23
-0.1964688270438856D0,7.549516567451064D-15,0.0D0,               0000011P     24
-2.574329638349582D-15,7.549516567451064D-15,0.0D0,              0000011P     25
-0.1964688270438856D0,-5.148659276699163D-15,0.0D0,0.0D0,1.0D0;  0000011P     26
102,3,7,9,11;                                                    0000013P     27
126,1,1,1,0,1,0,0.0D0,0.0D0,0.3586084215408288D0,                0000015P     28
0.3586084215408288D0,1.0D0,1.0D0,1.2225D0,                       0000015P     29
-0.07000000000000001D0,-7.605027718682322D-15,1.0325D0,-0.12D0,  0000015P     30
0.3D0,0.0D0,0.3586084215408288D0,0.8448190755542336D0,0.0D0,     0000015P     31
0.5350520811843367D0;                                            0000015P     32
126,1,1,1,0,1,0,0.0D0,0.0D0,0.3D0,0.3D0,1.0D0,1.0D0,1.0325D0,    0000017P     33
-0.12D0,0.3D0,1.0325D0,-0.12D0,0.0D0,0.0D0,0.3D0,1.0D0,0.0D0,    0000017P     34
0.0D0;                                                           0000017P     35
126,1,1,1,0,1,0,-0.1964688270438855D0,-0.1964688270438855D0,     0000019P     36
-5.148659276699163D-15,-5.148659276699163D-15,1.0D0,1.0D0,       0000019P     37
1.0325D0,-0.12D0,0.0D0,1.2225D0,-0.07000000000000001D0,          0000019P     38
-7.605027718682322D-15,-0.1964688270438855D0,                    0000019P     39
-5.148659276699163D-15,0.0D0,0.0D0,1.0D0;                        0000019P     40
102,3,15,17,19;                                                  0000021P     41
142,0,5,13,21,1;                                                 0000023P     42
144,5,1,0,23;                                                    0000025P     43
128,1,1,1,1,0,0,1,0,0,-0.01D0,-0.01D0,0.1915616120592729D0,      0000027P     44
0.1915616120592729D0,-0.01D0,-0.01D0,0.3686084215408288D0,       0000027P     45
0.3686084215408288D0,1.0D0,1.0D0,1.0D0,1.0D0,                    0000027P     46
1.220677985009394D0,-0.07323336373051899D0,                      0000027P     47
-0.01364645083383873D0,1.364195358706434D0,                      0000027P     48
0.02004213839257862D0,0.09279380286146703D0,1.020081468665264D0, 0000027P     49
-0.1260219206631847D0,0.3030848907621638D0,1.163598842362303D0,  0000027P     50
-0.03274641854008706D0,0.4095251444574695D0,-0.01D0,             0000027P     51
0.1915616120592729D0,-0.01D0,0.3686084215408288D0;               0000027P     52
126,1,1,1,0,1,0,-0.3041381265149184D0,-0.3041381265149184D0,     0000029P     53
-0.0D0,-0.0D0,1.0D0,1.0D0,0.0D0,0.0D0,0.0D0,                     0000029P     54
0.1815616120592729D0,0.243998731608266D0,0.0D0,                  0000029P     55
-0.3041381265149184D0,-0.0D0,0.0D0,0.0D0,1.0D0;                  0000029P     56
126,1,1,1,0,1,0,-0.2147091055358392D0,-0.2147091055358392D0,     0000031P     57
-0.0D0,-0.0D0,1.0D0,1.0D0,0.1815616120592729D0,                  0000031P     58
0.243998731608266D0,0.0D0,0.0D0,0.3586084215408288D0,0.0D0,      0000031P     59
-0.2147091055358392D0,-0.0D0,0.0D0,0.0D0,1.0D0;                  0000031P     60
126,1,1,1,0,1,0,-0.3586084215408288D0,-0.3586084215408288D0,     0000033P     61
-0.0D0,-0.0D0,1.0D0,1.0D0,0.0D0,0.3586084215408288D0,0.0D0,      0000033P     62
0.0D0,0.0D0,0.0D0,-0.3586084215408288D0,-0.0D0,0.0D0,0.0D0,      0000033P     63
1.0D0;                                                           0000033P     64
102,3,29,31,33;                                                  0000035P     65
126,1,1,1,0,1,0,0.0D0,0.0D0,0.3041381265149107D0,                0000037P     66
0.3041381265149107D0,1.0D0,1.0D0,1.222500000000001D0,            0000037P     67
-0.06999999999999876D0,6.037138159846371D-18,1.2225D0,           0000037P     68
-0.02000000000000002D0,0.3D0,0.0D0,0.3041381265149107D0,1.0D0,   0000037P     69
0.0D0,0.0D0;                                                     0000037P     70
126,1,1,1,0,1,0,-0.2147091055358392D0,-0.2147091055358392D0,     0000039P     71
-0.0D0,-0.0D0,1.0D0,1.0D0,1.2225D0,-0.02000000000000002D0,0.3D0, 0000039P     72
1.0325D0,-0.1199999999999999D0,0.3D0,-0.2147091055358392D0,      0000039P     73
-0.0D0,0.0D0,0.0D0,1.0D0;                                        0000039P     74
126,1,1,1,0,1,0,-0.3586084215408288D0,-0.3586084215408288D0,     0000041P     75
-0.0D0,-0.0D0,1.0D0,1.0D0,1.0325D0,-0.1199999999999999D0,0.3D0,  0000041P     76
1.2225D0,-0.07000000000000001D0,-7.605027718682322D-15,          0000041P     77
-0.3586084215408288D0,-0.0D0,0.8448190755542339D0,0.0D0,         0000041P     78
0.5350520811843362D0;                                            0000041P     79
102,3,37,39,41;                                                  0000043P     80
142,0,27,35,43,1;                                                0000045P     81
144,27,1,0,45;                                                   0000047P     82
S0000001G0000011D0000048P0000082                                        T      1
