                                                                        S      1
1H,,1H;,,                                                               G      1
47H\\10.49.32.64\rhino_jobs\fbarge\patch_s6_xy.igs,                     G      2
26HRhinoceros ( Apr 17 2023 ),31HTrout Lake IGES 012 Apr 17 2023,       G      3
32,38,6,308,15,                                                         G      4
,                                                                       G      5
1.0D0,6,1HM,1,0.000254D0,13H230519.125854,                              G      6
0.001D0,                                                                G      7
1.2225D0,                                                               G      8
4Hmaaf,                                                                 G      9
3Hdtu,                                                                  G     10
10,0,13H230519.125854;                                                  G     11
     314       1       0       0       0       0       0       000000200D      1
     314       0       1       1       0       0       0   COLOR       0D      2
     406       2       0       0       1       0       0       000000300D      3
     406       0      -1       1       3       0       0LEVELDEF       0D      4
     128       3       0       0       1       0       0       000010000D      5
     128       0      -1       4       8       0       0 TrimSrf       0D      6
     126       7       0       0       1       0       0       000010500D      7
     126       0      -1       4       1       0       0 TrimBnd       1D      8
     126      11       0       0       1       0       0       000010500D      9
     126       0      -1       3       1       0       0 TrimBnd       2D     10
     126      14       0       0       1       0       0       000010500D     11
     126       0      -1       5       1       0       0 TrimBnd       3D     12
     126      19       0       0       1       0       0       000010500D     13
     126       0      -1       4       1       0       0 TrimBnd       4D     14
     102      23       0       0       1       0       0       000010500D     15
     102       0      -1       1       0       0       02D CURVE       0D     16
     126      24       0       0       1       0       0       000010000D     17
     126       0      -1       4       1       0       0 TrimBnd       1D     18
     126      28       0       0       1       0       0       000010000D     19
     126       0      -1       3       1       0       0 TrimBnd       2D     20
     126      31       0       0       1       0       0       000010000D     21
     126       0      -1       4       1       0       0 TrimBnd       3D     22
     126      35       0       0       1       0       0       000010000D     23
     126       0      -1       4       1       0       0 TrimBnd       4D     24
     102      39       0       0       1       0       0       000010000D     25
     102       0      -1       1       0       0       03D CURVE       0D     26
     142      40       0       0       1       0       0       000010000D     27
     142       0      -1       1       0       0       0 TrimBnd       1D     28
     144      41       0       0       1       0       0       000000000D     29
     144       0      -1       1       0       0       0 TrimSrf       0D     30
314,0.0,0.0,0.0,20HRGB(   0,   0,   0 );                         0000001P      1
406,2,1,7HDefault;                                               0000003P      2
128,1,1,1,1,0,0,1,0,0,0.0D0,0.0D0,2.445D0,2.445D0,0.0D0,0.0D0,   0000005P      3
0.25D0,0.25D0,1.0D0,1.0D0,1.0D0,1.0D0,-1.2225D0,-0.12D0,0.3D0,   0000005P      4
1.2225D0,-0.12D0,0.3D0,-1.2225D0,0.13D0,0.3D0,1.2225D0,0.13D0,   0000005P      5
0.3D0,0.0D0,2.445D0,0.0D0,0.25D0;                                0000005P      6
126,1,1,1,0,1,0,-2.35D0,-2.35D0,-2.254999999999999D0,            0000007P      7
-2.254999999999999D0,1.0D0,1.0D0,2.35D0,0.12D0,0.0D0,            0000007P      8
2.254999999999999D0,0.12D0,0.0D0,-2.35D0,-2.254999999999999D0,   0000007P      9
0.0D0,0.0D0,1.0D0;                                               0000007P     10
126,1,1,1,0,1,0,-0.12D0,-0.12D0,-0.0D0,-0.0D0,1.0D0,1.0D0,       0000009P     11
2.254999999999999D0,0.12D0,0.0D0,2.254999999999999D0,0.0D0,      0000009P     12
0.0D0,-0.12D0,-0.0D0,0.0D0,0.0D0,1.0D0;                          0000009P     13
126,1,1,1,0,1,0,-0.2147091055358392D0,-0.2147091055358392D0,     0000011P     14
-0.1073545527679199D0,-0.1073545527679199D0,1.0D0,1.0D0,         0000011P     15
2.254999999999999D0,0.0D0,0.0D0,2.35D0,0.04999999999999992D0,    0000011P     16
0.0D0,-0.2147091055358392D0,-0.1073545527679199D0,0.0D0,0.0D0,   0000011P     17
1.0D0;                                                           0000011P     18
126,1,1,1,0,1,0,-0.07000000000000001D0,-0.07000000000000001D0,   0000013P     19
-0.0D0,-0.0D0,1.0D0,1.0D0,2.35D0,0.04999999999999992D0,0.0D0,    0000013P     20
2.35D0,0.12D0,0.0D0,-0.07000000000000001D0,-0.0D0,0.0D0,0.0D0,   0000013P     21
1.0D0;                                                           0000013P     22
102,4,7,9,11,13;                                                 0000015P     23
126,1,1,1,0,1,0,-2.349999999999999D0,-2.349999999999999D0,       0000017P     24
-2.254999999999999D0,-2.254999999999999D0,1.0D0,1.0D0,1.1275D0,  0000017P     25
0.0D0,0.3D0,1.032499999999999D0,0.0D0,0.3D0,                     0000017P     26
-2.349999999999999D0,-2.254999999999999D0,0.0D0,0.0D0,1.0D0;     0000017P     27
126,1,1,1,0,1,0,-0.12D0,-0.12D0,-0.0D0,-0.0D0,1.0D0,1.0D0,       0000019P     28
1.032499999999999D0,0.0D0,0.3D0,1.0325D0,-0.12D0,0.3D0,-0.12D0,  0000019P     29
-0.0D0,0.0D0,0.0D0,1.0D0;                                        0000019P     30
126,1,1,1,0,1,0,0.0D0,0.0D0,0.1073545527679193D0,                0000021P     31
0.1073545527679193D0,1.0D0,1.0D0,1.0325D0,-0.12D0,0.3D0,         0000021P     32
1.1275D0,-0.07000000000000015D0,0.3D0,0.0D0,                     0000021P     33
0.1073545527679193D0,0.0D0,0.0D0,1.0D0;                          0000021P     34
126,1,1,1,0,1,0,-0.07000000000000001D0,-0.07000000000000001D0,   0000023P     35
-0.0D0,-0.0D0,1.0D0,1.0D0,1.1275D0,-0.07000000000000015D0,0.3D0, 0000023P     36
1.1275D0,0.0D0,0.3D0,-0.07000000000000001D0,-0.0D0,0.0D0,0.0D0,  0000023P     37
1.0D0;                                                           0000023P     38
102,4,17,19,21,23;                                               0000025P     39
142,0,5,15,25,1;                                                 0000027P     40
144,5,1,0,27;                                                    0000029P     41
S0000001G0000011D0000030P0000041                                        T      1
