                                                                        S      1
1H,,1H;,,                                                               G      1
40H\\10.49.32.64\rhino_jobs\barge_s0_yz.igs,                            G      2
26HRhinoceros ( Apr 17 2023 ),31HTrout Lake IGES 012 Apr 17 2023,       G      3
32,38,6,308,15,                                                         G      4
,                                                                       G      5
1.0D0,6,1HM,1,0.000254D0,13H230512.114338,                              G      6
0.001D0,                                                                G      7
40.04000000000002D0,                                                    G      8
4Hmaaf,                                                                 G      9
3Hdtu,                                                                  G     10
10,0,13H230512.114338;                                                  G     11
     314       1       0       0       0       0       0       000000200D      1
     314       0       1       1       0       0       0   COLOR       0D      2
     406       2       0       0       1       0       0       000000300D      3
     406       0      -1       1       3       0       0LEVELDEF       0D      4
     406       3       0       0       0       0       0       000010300D      5
     406       0       0       1      15       0       0 NAMETXT       0D      6
     128       4       0       0       1       0       0       000010000D      7
     128       0      -1      15       0       0       0 TrimSrf       0D      8
     126      19       0       0       1       0       0       000010500D      9
     126       0      -1       4       1       0       0 TrimBnd       1D     10
     126      23       0       0       1       0       0       000010500D     11
     126       0      -1       4       1       0       0 TrimBnd       2D     12
     126      27       0       0       1       0       0       000010500D     13
     126       0      -1       4       1       0       0 TrimBnd       3D     14
     126      31       0       0       1       0       0       000010500D     15
     126       0      -1       4       1       0       0 TrimBnd       4D     16
     102      35       0       0       1       0       0       000010500D     17
     102       0      -1       1       0       0       02D CURVE       0D     18
     126      36       0       0       1       0       0       000010000D     19
     126       0      -1       9       1       0       0 TrimBnd       1D     20
     126      45       0       0       1       0       0       000010000D     21
     126       0      -1       7       2       0       0 TrimBnd       2D     22
     126      52       0       0       1       0       0       000010000D     23
     126       0      -1       9       1       0       0 TrimBnd       3D     24
     126      61       0       0       1       0       0       000010000D     25
     126       0      -1       7       2       0       0 TrimBnd       4D     26
     102      68       0       0       1       0       0       000010000D     27
     102       0      -1       1       0       0       03D CURVE       0D     28
     142      69       0       0       1       0       0       000010000D     29
     142       0      -1       1       0       0       0 TrimBnd       1D     30
     144      70       0       0       1       0       0       000000000D     31
     144       0      -1       1       0       0       0 TrimSrf       0D     32
     406      71       0       0       0       0       0       000010300D     33
     406       0       0       1      15       0       0 NAMETXT       0D     34
     128      72       0       0       1       0       0       000010000D     35
     128       0      -1       4       8       0       0 TrimSrf       0D     36
     126      76       0       0       1       0       0       000010500D     37
     126       0      -1       6       1       0       0 TrimBnd       1D     38
     126      82       0       0       1       0       0       000010500D     39
     126       0      -1       8       1       0       0 TrimBnd       2D     40
     126      90       0       0       1       0       0       000010500D     41
     126       0      -1       8       1       0       0 TrimBnd       3D     42
     126      98       0       0       1       0       0       000010500D     43
     126       0      -1       8       1       0       0 TrimBnd       4D     44
     102     106       0       0       1       0       0       000010500D     45
     102       0      -1       1       0       0       02D CURVE       0D     46
     126     107       0       0       1       0       0       000010000D     47
     126       0      -1       4       1       0       0 TrimBnd       1D     48
     126     111       0       0       1       0       0       000010000D     49
     126       0      -1       9       1       0       0 TrimBnd       2D     50
     126     120       0       0       1       0       0       000010000D     51
     126       0      -1       9       1       0       0 TrimBnd       3D     52
     126     129       0       0       1       0       0       000010000D     53
     126       0      -1       4       1       0       0 TrimBnd       4D     54
     102     133       0       0       1       0       0       000010000D     55
     102       0      -1       1       0       0       03D CURVE       0D     56
     142     134       0       0       1       0       0       000010000D     57
     142       0      -1       1       0       0       0 TrimBnd       1D     58
     144     135       0       0       1       0       0       000000000D     59
     144       0      -1       1       0       0       0 TrimSrf       0D     60
314,0.0,0.0,0.0,20HRGB(   0,   0,   0 );                         0000001P      1
406,2,1,7HDefault;                                               0000003P      2
406,1,7HTrimSrf;                                                 0000005P      3
128,3,2,3,2,0,0,0,0,0,0.0D0,0.0D0,0.0D0,0.0D0,10000.0D0,         0000007P      4
10000.0D0,10000.0D0,10000.0D0,0.0D0,0.0D0,0.0D0,300.0D0,300.0D0, 0000007P      5
300.0D0,1.0D0,1.0D0,0.9999999999999997D0,1.0D0,                  0000007P      6
0.7071067811865457D0,0.7071067811865469D0,0.7071067811865468D0,  0000007P      7
0.7071067811865457D0,1.0D0,1.0D0,0.9999999999999997D0,1.0D0,     0000007P      8
39.89000000000001D0,-5.0D0,5.0D0,39.89000000000002D0,            0000007P      9
-4.999999999999999D0,1.666666666666666D0,39.89000000000001D0,    0000007P     10
-5.000000000000001D0,-1.666666666666667D0,39.89000000000001D0,   0000007P     11
-5.0D0,-5.0D0,40.04000000000001D0,-5.0D0,5.0D0,                  0000007P     12
40.04000000000001D0,-5.000000000000001D0,1.666666666666674D0,    0000007P     13
40.04D0,-5.0D0,-1.666666666666675D0,40.04000000000001D0,-5.0D0,  0000007P     14
-5.0D0,40.04D0,-4.850000000000001D0,5.0D0,40.04000000000001D0,   0000007P     15
-4.850000000000001D0,1.666666666666667D0,40.04000000000002D0,    0000007P     16
-4.85D0,-1.666666666666668D0,40.04D0,-4.850000000000001D0,       0000007P     17
-5.0D0,0.0D0,10000.0D0,0.0D0,300.0D0,0,1,5;                      0000007P     18
126,1,1,1,0,1,0,5000.0D0,5000.0D0,9849.999999999996D0,           0000009P     19
9849.999999999996D0,1.0D0,1.0D0,5000.0D0,300.0D0,0.0D0,          0000009P     20
150.0000000000036D0,300.0D0,0.0D0,5000.0D0,9849.999999999996D0,  0000009P     21
0.0D0,0.0D0,1.0D0,0,1,5;                                         0000009P     22
126,1,1,1,0,1,0,9849.999999999996D0,9849.999999999996D0,         0000011P     23
10150.0D0,10150.0D0,1.0D0,1.0D0,150.0000000000036D0,300.0D0,     0000011P     24
0.0D0,150.0000000000055D0,0.0D0,0.0D0,9849.999999999996D0,       0000011P     25
10150.0D0,0.0D0,0.0D0,1.0D0,0,1,5;                               0000011P     26
126,1,1,1,0,1,0,10150.0D0,10150.0D0,14999.99999999999D0,         0000013P     27
14999.99999999999D0,1.0D0,1.0D0,150.0000000000055D0,0.0D0,0.0D0, 0000013P     28
5000.000000000001D0,0.0D0,0.0D0,10150.0D0,14999.99999999999D0,   0000013P     29
0.0D0,0.0D0,1.0D0,0,1,5;                                         0000013P     30
126,1,1,1,0,1,0,14999.99999999999D0,14999.99999999999D0,         0000015P     31
15299.99999999999D0,15299.99999999999D0,1.0D0,1.0D0,             0000015P     32
5000.000000000001D0,0.0D0,0.0D0,5000.0D0,300.0D0,0.0D0,          0000015P     33
14999.99999999999D0,15299.99999999999D0,0.0D0,0.0D0,1.0D0,0,1,5; 0000015P     34
102,4,9,11,13,15,0,1,5;                                          0000017P     35
126,3,3,1,0,1,0,-9799.850000000028D0,-9799.850000000028D0,       0000019P     36
-9799.850000000028D0,-9799.850000000028D0,-4949.850000000005D0,  0000019P     37
-4949.850000000005D0,-4949.850000000005D0,-4949.850000000005D0,  0000019P     38
1.0D0,1.0D0,1.0D0,1.0D0,40.04000000000001D0,                     0000019P     39
-4.850000000000002D0,-2.955857780762017D-15,40.04000000000001D0, 0000019P     40
-4.850000000000001D0,1.616666666666672D0,40.04000000000001D0,    0000019P     41
-4.850000000000001D0,3.233333333333346D0,40.04D0,                0000019P     42
-4.850000000000001D0,4.850000000000021D0,-9799.850000000028D0,   0000019P     43
-4949.850000000005D0,1.0D0,0.0D0,0.0D0,0,1,5;                    0000019P     44
126,2,2,1,0,0,0,-150.0000000000035D0,-150.0000000000035D0,       0000021P     45
-150.0000000000035D0,149.9999999999965D0,149.9999999999965D0,    0000021P     46
149.9999999999965D0,1.0D0,0.7071067811865819D0,1.0D0,40.04D0,    0000021P     47
-4.850000000000001D0,4.849999999999997D0,40.04D0,                0000021P     48
-4.999999999999985D0,4.849999999999992D0,39.89000000000001D0,    0000021P     49
-5.0D0,4.849999999999996D0,-150.0000000000035D0,                 0000021P     50
149.9999999999965D0,-0.0D0,-0.0D0,-1.0D0,0,1,5;                  0000021P     51
126,3,3,1,0,1,0,149.9999999999965D0,149.9999999999965D0,         0000023P     52
149.9999999999965D0,149.9999999999965D0,4999.999999999991D0,     0000023P     53
4999.999999999991D0,4999.999999999991D0,4999.999999999991D0,     0000023P     54
1.0D0,1.0D0,1.0D0,1.0D0,39.89000000000001D0,-5.0D0,              0000023P     55
4.849999999999996D0,39.89000000000001D0,-5.0D0,                  0000023P     56
3.233333333333331D0,39.89000000000001D0,-5.0D0,                  0000023P     57
1.616666666666666D0,39.89000000000001D0,-5.0D0,                  0000023P     58
1.023181539494544D-15,149.9999999999965D0,4999.999999999991D0,   0000023P     59
1.0D0,0.0D0,0.0D0,0,1,5;                                         0000023P     60
126,2,2,1,0,0,0,4999.999999999991D0,4999.999999999991D0,         0000025P     61
4999.999999999991D0,5299.999999999991D0,5299.999999999991D0,     0000025P     62
5299.999999999991D0,1.0D0,0.7071067811865476D0,1.0D0,            0000025P     63
39.89000000000002D0,-5.000000000000001D0,1.023181539494545D-15,  0000025P     64
40.04000000000001D0,-4.999999999999998D0,8.366570090763576D-19,  0000025P     65
40.04000000000001D0,-4.850000000000001D0,-2.273736754432321D-16, 0000025P     66
4999.999999999991D0,5299.999999999991D0,0.0D0,0.0D0,1.0D0,0,1,5; 0000025P     67
102,4,19,21,23,25,0,1,5;                                         0000027P     68
142,0,7,17,27,1,0,1,5;                                           0000029P     69
144,7,1,0,29,0,1,5;                                              0000031P     70
406,1,7HTrimSrf;                                                 0000033P     71
128,1,1,1,1,0,0,1,0,0,0.0D0,0.0D0,10000.0D0,10000.0D0,0.0D0,     0000035P     72
0.0D0,5000.0D0,5000.0D0,1.0D0,1.0D0,1.0D0,1.0D0,40.04D0,0.0D0,   0000035P     73
-5.0D0,40.04D0,0.0D0,5.0D0,40.04D0,-5.0D0,-5.0D0,40.04D0,-5.0D0, 0000035P     74
5.0D0,0.0D0,10000.0D0,0.0D0,5000.0D0,0,1,33;                     0000035P     75
126,3,3,1,0,1,0,95.0D0,95.0D0,95.0D0,95.0D0,99.84999999999999D0, 0000037P     76
99.84999999999999D0,99.84999999999999D0,99.84999999999999D0,     0000037P     77
1.0D0,1.0D0,1.0D0,1.0D0,5000.000000000003D0,0.0D0,0.0D0,         0000037P     78
6616.666666666669D0,0.0D0,0.0D0,8233.333333333334D0,0.0D0,0.0D0, 0000037P     79
9850.0D0,0.0D0,0.0D0,95.0D0,99.84999999999999D0,0.0D0,0.0D0,     0000037P     80
1.0D0,0,1,33;                                                    0000037P     81
126,3,3,1,0,1,0,99.84999999999999D0,99.84999999999999D0,         0000039P     82
99.84999999999999D0,99.84999999999999D0,4949.850000000005D0,     0000039P     83
4949.850000000005D0,4949.850000000005D0,4949.850000000005D0,     0000039P     84
1.0D0,1.0D0,1.0D0,1.0D0,9850.0D0,0.0D0,0.0D0,                    0000039P     85
9849.999999999927D0,1616.666666666667D0,0.0D0,9850.0D0,          0000039P     86
3233.333333333336D0,0.0D0,9850.0D0,4849.999999999997D0,0.0D0,    0000039P     87
99.84999999999999D0,4949.850000000005D0,0.0D0,0.0D0,1.0D0,0,1,   0000039P     88
33;                                                              0000039P     89
126,3,3,1,0,1,0,4949.850000000005D0,4949.850000000005D0,         0000041P     90
4949.850000000005D0,4949.850000000005D0,9799.850000000019D0,     0000041P     91
9799.850000000019D0,9799.850000000019D0,9799.850000000019D0,     0000041P     92
1.0D0,1.0D0,1.0D0,1.0D0,9850.0D0,4849.999999999997D0,0.0D0,      0000041P     93
8233.333333333343D0,4849.999999999998D0,0.0D0,                   0000041P     94
6616.666666666668D0,4849.999999999998D0,0.0D0,                   0000041P     95
4999.999999999998D0,4850.0D0,0.0D0,4949.850000000005D0,          0000041P     96
9799.850000000019D0,0.0D0,0.0D0,1.0D0,0,1,33;                    0000041P     97
126,3,3,1,0,1,0,9799.850000000019D0,9799.850000000019D0,         0000043P     98
9799.850000000019D0,9799.850000000019D0,14649.85000000002D0,     0000043P     99
14649.85000000002D0,14649.85000000002D0,14649.85000000002D0,     0000043P    100
1.0D0,1.0D0,1.0D0,1.0D0,4999.999999999998D0,4850.0D0,0.0D0,      0000043P    101
4999.999999999999D0,3233.333333333333D0,0.0D0,                   0000043P    102
5000.000000000001D0,1616.666666666667D0,0.0D0,                   0000043P    103
5000.000000000003D0,0.0D0,0.0D0,9799.850000000019D0,             0000043P    104
14649.85000000002D0,0.0D0,0.0D0,1.0D0,0,1,33;                    0000043P    105
102,4,37,39,41,43,0,1,33;                                        0000045P    106
126,1,1,1,0,1,0,95.0D0,95.0D0,99.84999999999999D0,               0000047P    107
99.84999999999999D0,1.0D0,1.0D0,40.04D0,0.0D0,0.0D0,40.04D0,     0000047P    108
0.0D0,4.849999999999994D0,95.0D0,99.84999999999999D0,1.0D0,      0000047P    109
0.0D0,0.0D0,0,1,33;                                              0000047P    110
126,3,3,1,0,1,0,99.84999999999999D0,99.84999999999999D0,         0000049P    111
99.84999999999999D0,99.84999999999999D0,4949.850000000005D0,     0000049P    112
4949.850000000005D0,4949.850000000005D0,4949.850000000005D0,     0000049P    113
1.0D0,1.0D0,1.0D0,1.0D0,40.04D0,0.0D0,4.849999999999994D0,       0000049P    114
40.03999999999998D0,-1.616666666666666D0,4.850000000000002D0,    0000049P    115
40.03999999999998D0,-3.233333333333332D0,4.850000000000009D0,    0000049P    116
40.04D0,-4.850000000000001D0,4.850000000000021D0,                0000049P    117
99.84999999999999D0,4949.850000000005D0,0.0D0,0.0D0,1.0D0,0,1,   0000049P    118
33;                                                              0000049P    119
126,3,3,1,0,1,0,4949.850000000005D0,4949.850000000005D0,         0000051P    120
4949.850000000005D0,4949.850000000005D0,9799.850000000028D0,     0000051P    121
9799.850000000028D0,9799.850000000028D0,9799.850000000028D0,     0000051P    122
1.0D0,1.0D0,1.0D0,1.0D0,40.04D0,-4.850000000000001D0,            0000051P    123
4.850000000000021D0,40.04000000000001D0,-4.850000000000001D0,    0000051P    124
3.233333333333346D0,40.04000000000001D0,-4.850000000000001D0,    0000051P    125
1.616666666666672D0,40.04000000000001D0,-4.850000000000002D0,    0000051P    126
-2.955857780762017D-15,4949.850000000005D0,9799.850000000028D0,  0000051P    127
1.0D0,0.0D0,0.0D0,0,1,33;                                        0000051P    128
126,1,1,1,0,1,0,-4849.999999999999D0,-4849.999999999999D0,       0000053P    129
-0.0D0,-0.0D0,1.0D0,1.0D0,40.04000000000001D0,                   0000053P    130
-4.850000000000002D0,4.940829967381433D-15,40.04D0,0.0D0,0.0D0,  0000053P    131
-4849.999999999999D0,-0.0D0,0.0D0,0.0D0,1.0D0,0,1,33;            0000053P    132
102,4,47,49,51,53,0,1,33;                                        0000055P    133
142,0,35,45,55,1,0,1,33;                                         0000057P    134
144,35,1,0,57,0,1,33;                                            0000059P    135
S0000001G0000011D0000060P0000135                                        T      1
